<mxfile host="65bd71144e">
    <diagram id="97eYRvzk05BzsV047aOX" name="ページ1">
        <mxGraphModel dx="632" dy="594" grid="1" gridSize="10" guides="1" tooltips="1" connect="1" arrows="1" fold="1" page="1" pageScale="1" pageWidth="827" pageHeight="1169" background="none" math="0" shadow="0">
            <root>
                <mxCell id="0"/>
                <mxCell id="1" parent="0"/>
                <mxCell id="2" value="：未登録ユーザ" style="shape=umlActor;verticalLabelPosition=bottom;verticalAlign=top;html=1;outlineConnect=0;" parent="1" vertex="1">
                    <mxGeometry x="40" y="380" width="30" height="60" as="geometry"/>
                </mxCell>
                <mxCell id="8" value="" style="endArrow=none;html=1;" parent="1" edge="1">
                    <mxGeometry width="50" height="50" relative="1" as="geometry">
                        <mxPoint x="90" y="410" as="sourcePoint"/>
                        <mxPoint x="280" y="410" as="targetPoint"/>
                    </mxGeometry>
                </mxCell>
                <mxCell id="10" value="１：ユーザ情報登録を指示する()" style="text;html=1;strokeColor=none;fillColor=none;align=center;verticalAlign=middle;whiteSpace=wrap;rounded=0;" parent="1" vertex="1">
                    <mxGeometry x="90" y="180" width="190" height="30" as="geometry"/>
                </mxCell>
                <mxCell id="15" value="" style="endArrow=none;html=1;" parent="1" edge="1">
                    <mxGeometry width="50" height="50" relative="1" as="geometry">
                        <mxPoint x="280" y="580" as="sourcePoint"/>
                        <mxPoint x="60" y="460" as="targetPoint"/>
                        <Array as="points">
                            <mxPoint x="60" y="580"/>
                        </Array>
                    </mxGeometry>
                </mxCell>
                <mxCell id="20" value="" style="endArrow=none;html=1;" parent="1" edge="1">
                    <mxGeometry width="50" height="50" relative="1" as="geometry">
                        <mxPoint x="60" y="370" as="sourcePoint"/>
                        <mxPoint x="280" y="220" as="targetPoint"/>
                        <Array as="points">
                            <mxPoint x="60" y="220"/>
                        </Array>
                    </mxGeometry>
                </mxCell>
                <mxCell id="21" value="" style="endArrow=classic;html=1;" parent="1" edge="1">
                    <mxGeometry width="50" height="50" relative="1" as="geometry">
                        <mxPoint x="160" y="210" as="sourcePoint"/>
                        <mxPoint x="240" y="210" as="targetPoint"/>
                    </mxGeometry>
                </mxCell>
                <mxCell id="26" value="" style="group" parent="1" vertex="1" connectable="0">
                    <mxGeometry x="295" y="540" width="110" height="80" as="geometry"/>
                </mxCell>
                <mxCell id="23" value="：ユーザ情報確認画面" style="ellipse;whiteSpace=wrap;html=1;aspect=fixed;" parent="26" vertex="1">
                    <mxGeometry x="30" width="80" height="80" as="geometry"/>
                </mxCell>
                <mxCell id="24" value="" style="endArrow=none;html=1;entryX=0;entryY=0.5;entryDx=0;entryDy=0;" parent="26" target="23" edge="1">
                    <mxGeometry width="50" height="50" relative="1" as="geometry">
                        <mxPoint y="40" as="sourcePoint"/>
                        <mxPoint x="30" y="40" as="targetPoint"/>
                    </mxGeometry>
                </mxCell>
                <mxCell id="25" value="" style="endArrow=none;html=1;" parent="26" edge="1">
                    <mxGeometry width="50" height="50" relative="1" as="geometry">
                        <mxPoint y="70" as="sourcePoint"/>
                        <mxPoint y="10" as="targetPoint"/>
                    </mxGeometry>
                </mxCell>
                <mxCell id="27" value="" style="group" parent="1" vertex="1" connectable="0">
                    <mxGeometry x="105" y="535" width="150" height="40" as="geometry"/>
                </mxCell>
                <mxCell id="17" value="" style="endArrow=classic;html=1;" parent="27" edge="1">
                    <mxGeometry width="50" height="50" relative="1" as="geometry">
                        <mxPoint x="40" y="40" as="sourcePoint"/>
                        <mxPoint x="120" y="40" as="targetPoint"/>
                    </mxGeometry>
                </mxCell>
                <mxCell id="18" value="７：入力内容を確定する()" style="text;html=1;strokeColor=none;fillColor=none;align=center;verticalAlign=middle;whiteSpace=wrap;rounded=0;" parent="27" vertex="1">
                    <mxGeometry width="150" height="30" as="geometry"/>
                </mxCell>
                <mxCell id="30" value="２：表示する" style="text;html=1;align=center;verticalAlign=middle;resizable=0;points=[];autosize=1;strokeColor=none;fillColor=none;" parent="1" vertex="1">
                    <mxGeometry x="364" y="290" width="100" height="30" as="geometry"/>
                </mxCell>
                <mxCell id="40" value="：登録済ユーザ" style="shape=umlActor;verticalLabelPosition=bottom;verticalAlign=top;html=1;outlineConnect=0;" parent="1" vertex="1">
                    <mxGeometry x="50" y="890" width="30" height="60" as="geometry"/>
                </mxCell>
                <mxCell id="42" value="" style="group" parent="1" vertex="1" connectable="0">
                    <mxGeometry x="290" y="730" width="110" height="80" as="geometry"/>
                </mxCell>
                <mxCell id="43" value="：メイン画面" style="ellipse;whiteSpace=wrap;html=1;aspect=fixed;" parent="42" vertex="1">
                    <mxGeometry x="30" width="80" height="80" as="geometry"/>
                </mxCell>
                <mxCell id="44" value="" style="endArrow=none;html=1;entryX=0;entryY=0.5;entryDx=0;entryDy=0;" parent="42" target="43" edge="1">
                    <mxGeometry width="50" height="50" relative="1" as="geometry">
                        <mxPoint y="40" as="sourcePoint"/>
                        <mxPoint x="30" y="40" as="targetPoint"/>
                    </mxGeometry>
                </mxCell>
                <mxCell id="45" value="" style="endArrow=none;html=1;" parent="42" edge="1">
                    <mxGeometry width="50" height="50" relative="1" as="geometry">
                        <mxPoint y="70" as="sourcePoint"/>
                        <mxPoint y="10" as="targetPoint"/>
                    </mxGeometry>
                </mxCell>
                <mxCell id="46" value="" style="endArrow=none;html=1;" parent="1" edge="1">
                    <mxGeometry width="50" height="50" relative="1" as="geometry">
                        <mxPoint x="70" y="880" as="sourcePoint"/>
                        <mxPoint x="280" y="770" as="targetPoint"/>
                        <Array as="points">
                            <mxPoint x="70" y="770"/>
                        </Array>
                    </mxGeometry>
                </mxCell>
                <mxCell id="47" value="" style="endArrow=classic;html=1;" parent="1" edge="1">
                    <mxGeometry width="50" height="50" relative="1" as="geometry">
                        <mxPoint x="160" y="760" as="sourcePoint"/>
                        <mxPoint x="240" y="760" as="targetPoint"/>
                    </mxGeometry>
                </mxCell>
                <mxCell id="48" value="１：ログインを指示する()" style="text;html=1;align=center;verticalAlign=middle;resizable=0;points=[];autosize=1;strokeColor=none;fillColor=none;" parent="1" vertex="1">
                    <mxGeometry x="125" y="730" width="160" height="30" as="geometry"/>
                </mxCell>
                <mxCell id="49" value="" style="group" parent="1" vertex="1" connectable="0">
                    <mxGeometry x="290" y="880" width="110" height="80" as="geometry"/>
                </mxCell>
                <mxCell id="50" value="：ログイン画面" style="ellipse;whiteSpace=wrap;html=1;aspect=fixed;" parent="49" vertex="1">
                    <mxGeometry x="30" width="80" height="80" as="geometry"/>
                </mxCell>
                <mxCell id="51" value="" style="endArrow=none;html=1;entryX=0;entryY=0.5;entryDx=0;entryDy=0;" parent="49" target="50" edge="1">
                    <mxGeometry width="50" height="50" relative="1" as="geometry">
                        <mxPoint y="40" as="sourcePoint"/>
                        <mxPoint x="30" y="40" as="targetPoint"/>
                    </mxGeometry>
                </mxCell>
                <mxCell id="52" value="" style="endArrow=none;html=1;" parent="49" edge="1">
                    <mxGeometry width="50" height="50" relative="1" as="geometry">
                        <mxPoint y="70" as="sourcePoint"/>
                        <mxPoint y="10" as="targetPoint"/>
                    </mxGeometry>
                </mxCell>
                <mxCell id="53" value="" style="endArrow=none;html=1;" parent="1" edge="1">
                    <mxGeometry width="50" height="50" relative="1" as="geometry">
                        <mxPoint x="90" y="920" as="sourcePoint"/>
                        <mxPoint x="280" y="920" as="targetPoint"/>
                        <Array as="points">
                            <mxPoint x="120" y="920"/>
                        </Array>
                    </mxGeometry>
                </mxCell>
                <mxCell id="54" value="" style="endArrow=none;html=1;entryX=0.5;entryY=1;entryDx=0;entryDy=0;exitX=0.5;exitY=0;exitDx=0;exitDy=0;" parent="1" source="50" target="43" edge="1">
                    <mxGeometry width="50" height="50" relative="1" as="geometry">
                        <mxPoint x="340" y="870" as="sourcePoint"/>
                        <mxPoint x="390" y="820" as="targetPoint"/>
                    </mxGeometry>
                </mxCell>
                <mxCell id="55" value="２：表示する" style="text;html=1;align=center;verticalAlign=middle;resizable=0;points=[];autosize=1;strokeColor=none;fillColor=none;" parent="1" vertex="1">
                    <mxGeometry x="364" y="830" width="100" height="30" as="geometry"/>
                </mxCell>
                <mxCell id="56" value="" style="group" parent="1" vertex="1" connectable="0">
                    <mxGeometry x="295" y="180" width="110" height="80" as="geometry"/>
                </mxCell>
                <mxCell id="57" value="：メイン画面" style="ellipse;whiteSpace=wrap;html=1;aspect=fixed;" parent="56" vertex="1">
                    <mxGeometry x="30" width="80" height="80" as="geometry"/>
                </mxCell>
                <mxCell id="58" value="" style="endArrow=none;html=1;entryX=0;entryY=0.5;entryDx=0;entryDy=0;" parent="56" target="57" edge="1">
                    <mxGeometry width="50" height="50" relative="1" as="geometry">
                        <mxPoint y="40" as="sourcePoint"/>
                        <mxPoint x="30" y="40" as="targetPoint"/>
                    </mxGeometry>
                </mxCell>
                <mxCell id="59" value="" style="endArrow=none;html=1;" parent="56" edge="1">
                    <mxGeometry width="50" height="50" relative="1" as="geometry">
                        <mxPoint y="70" as="sourcePoint"/>
                        <mxPoint y="10" as="targetPoint"/>
                    </mxGeometry>
                </mxCell>
                <mxCell id="16" value="" style="endArrow=none;html=1;exitX=0.5;exitY=0;exitDx=0;exitDy=0;entryX=0.5;entryY=1;entryDx=0;entryDy=0;" parent="1" source="3" target="57" edge="1">
                    <mxGeometry width="50" height="50" relative="1" as="geometry">
                        <mxPoint x="325" y="340" as="sourcePoint"/>
                        <mxPoint x="335" y="290" as="targetPoint"/>
                    </mxGeometry>
                </mxCell>
                <mxCell id="29" value="" style="endArrow=classic;html=1;" parent="1" edge="1">
                    <mxGeometry width="50" height="50" relative="1" as="geometry">
                        <mxPoint x="375" y="280" as="sourcePoint"/>
                        <mxPoint x="375" y="340" as="targetPoint"/>
                    </mxGeometry>
                </mxCell>
                <mxCell id="68" value="" style="group" parent="1" vertex="1" connectable="0">
                    <mxGeometry x="92" y="369" width="180" height="35" as="geometry"/>
                </mxCell>
                <mxCell id="9" value="" style="endArrow=classic;html=1;" parent="68" edge="1">
                    <mxGeometry width="50" height="50" relative="1" as="geometry">
                        <mxPoint x="50" y="30" as="sourcePoint"/>
                        <mxPoint x="130" y="30" as="targetPoint"/>
                    </mxGeometry>
                </mxCell>
                <mxCell id="22" value="３：ユーザ情報を入力する&lt;br&gt;(ユーザネーム、パスワード)" style="text;html=1;align=center;verticalAlign=middle;resizable=0;points=[];autosize=1;strokeColor=none;fillColor=none;" parent="68" vertex="1">
                    <mxGeometry y="-5" width="180" height="40" as="geometry"/>
                </mxCell>
                <mxCell id="69" value="" style="group" parent="1" vertex="1" connectable="0">
                    <mxGeometry x="295" y="370" width="110" height="80" as="geometry"/>
                </mxCell>
                <mxCell id="3" value="：ユーザ情報登録画面" style="ellipse;whiteSpace=wrap;html=1;aspect=fixed;container=0;" parent="69" vertex="1">
                    <mxGeometry x="30" width="80" height="80" as="geometry"/>
                </mxCell>
                <mxCell id="4" value="" style="endArrow=none;html=1;entryX=0;entryY=0.5;entryDx=0;entryDy=0;" parent="69" target="3" edge="1">
                    <mxGeometry width="50" height="50" relative="1" as="geometry">
                        <mxPoint y="40" as="sourcePoint"/>
                        <mxPoint x="-10" y="50" as="targetPoint"/>
                    </mxGeometry>
                </mxCell>
                <mxCell id="5" value="" style="endArrow=none;html=1;" parent="69" edge="1">
                    <mxGeometry width="50" height="50" relative="1" as="geometry">
                        <mxPoint y="70" as="sourcePoint"/>
                        <mxPoint y="10" as="targetPoint"/>
                    </mxGeometry>
                </mxCell>
                <mxCell id="70" value="" style="endArrow=classic;html=1;" parent="1" edge="1">
                    <mxGeometry width="50" height="50" relative="1" as="geometry">
                        <mxPoint x="370" y="820" as="sourcePoint"/>
                        <mxPoint x="370" y="870" as="targetPoint"/>
                    </mxGeometry>
                </mxCell>
                <mxCell id="71" value="" style="group" parent="1" vertex="1" connectable="0">
                    <mxGeometry x="285" y="1050" width="110" height="80" as="geometry"/>
                </mxCell>
                <mxCell id="72" value="：ログイン完了画面" style="ellipse;whiteSpace=wrap;html=1;aspect=fixed;" parent="71" vertex="1">
                    <mxGeometry x="30" width="80" height="80" as="geometry"/>
                </mxCell>
                <mxCell id="73" value="" style="endArrow=none;html=1;entryX=0;entryY=0.5;entryDx=0;entryDy=0;" parent="71" target="72" edge="1">
                    <mxGeometry width="50" height="50" relative="1" as="geometry">
                        <mxPoint y="40" as="sourcePoint"/>
                        <mxPoint x="30" y="40" as="targetPoint"/>
                    </mxGeometry>
                </mxCell>
                <mxCell id="74" value="" style="endArrow=none;html=1;" parent="71" edge="1">
                    <mxGeometry width="50" height="50" relative="1" as="geometry">
                        <mxPoint y="70" as="sourcePoint"/>
                        <mxPoint y="10" as="targetPoint"/>
                    </mxGeometry>
                </mxCell>
                <mxCell id="75" value="" style="endArrow=none;html=1;exitX=1;exitY=0.5;exitDx=0;exitDy=0;entryX=0;entryY=0.5;entryDx=0;entryDy=0;" parent="1" source="50" target="Q1mEJa5dFUFrGRtE1GUe-116" edge="1">
                    <mxGeometry width="50" height="50" relative="1" as="geometry">
                        <mxPoint x="450" y="950" as="sourcePoint"/>
                        <mxPoint x="540" y="930" as="targetPoint"/>
                    </mxGeometry>
                </mxCell>
                <mxCell id="76" value="" style="endArrow=classic;html=1;" parent="1" edge="1">
                    <mxGeometry width="50" height="50" relative="1" as="geometry">
                        <mxPoint x="160" y="910" as="sourcePoint"/>
                        <mxPoint x="240" y="910" as="targetPoint"/>
                    </mxGeometry>
                </mxCell>
                <mxCell id="77" value="３：ユーザ情報を入力する&lt;br&gt;(ユーザネーム、パスワード)" style="text;html=1;align=center;verticalAlign=middle;resizable=0;points=[];autosize=1;strokeColor=none;fillColor=none;" parent="1" vertex="1">
                    <mxGeometry x="110" y="875" width="180" height="40" as="geometry"/>
                </mxCell>
                <mxCell id="92" value="" style="group" parent="1" vertex="1" connectable="0">
                    <mxGeometry x="1460" y="80" width="80" height="80" as="geometry"/>
                </mxCell>
                <mxCell id="90" value="：山札" style="ellipse;whiteSpace=wrap;html=1;aspect=fixed;" parent="92" vertex="1">
                    <mxGeometry width="80" height="80" as="geometry"/>
                </mxCell>
                <mxCell id="91" value="" style="endArrow=none;html=1;" parent="92" edge="1">
                    <mxGeometry width="50" height="50" relative="1" as="geometry">
                        <mxPoint y="80" as="sourcePoint"/>
                        <mxPoint x="80" y="80" as="targetPoint"/>
                    </mxGeometry>
                </mxCell>
                <mxCell id="101" value="" style="group" parent="1" vertex="1" connectable="0">
                    <mxGeometry x="670" y="360" width="80" height="90" as="geometry"/>
                </mxCell>
                <mxCell id="102" value="：ゲームコントロール" style="ellipse;whiteSpace=wrap;html=1;aspect=fixed;" parent="101" vertex="1">
                    <mxGeometry y="10" width="80" height="80" as="geometry"/>
                </mxCell>
                <mxCell id="103" value="" style="triangle;whiteSpace=wrap;html=1;rotation=-180;" parent="101" vertex="1">
                    <mxGeometry x="30" width="20" height="20" as="geometry"/>
                </mxCell>
                <mxCell id="104" value="" style="endArrow=none;html=1;exitX=1;exitY=0.5;exitDx=0;exitDy=0;" parent="1" source="3" target="102" edge="1">
                    <mxGeometry width="50" height="50" relative="1" as="geometry">
                        <mxPoint x="430" y="440" as="sourcePoint"/>
                        <mxPoint x="480" y="390" as="targetPoint"/>
                    </mxGeometry>
                </mxCell>
                <mxCell id="31" value="" style="endArrow=classic;html=1;" parent="1" edge="1">
                    <mxGeometry width="50" height="50" relative="1" as="geometry">
                        <mxPoint x="500" y="400" as="sourcePoint"/>
                        <mxPoint x="580" y="400" as="targetPoint"/>
                    </mxGeometry>
                </mxCell>
                <mxCell id="32" value="４：ユーザ情報を確認する&lt;br&gt;(ユーザネーム、パスワード)" style="text;html=1;align=center;verticalAlign=middle;resizable=0;points=[];autosize=1;strokeColor=none;fillColor=none;" parent="1" vertex="1">
                    <mxGeometry x="450" y="365" width="180" height="40" as="geometry"/>
                </mxCell>
                <mxCell id="106" value="" style="endArrow=none;html=1;entryX=0;entryY=1;entryDx=0;entryDy=0;exitX=1;exitY=0.5;exitDx=0;exitDy=0;" parent="1" source="23" target="102" edge="1">
                    <mxGeometry width="50" height="50" relative="1" as="geometry">
                        <mxPoint x="500" y="530" as="sourcePoint"/>
                        <mxPoint x="550" y="480" as="targetPoint"/>
                    </mxGeometry>
                </mxCell>
                <mxCell id="107" value="" style="endArrow=classic;html=1;" parent="1" edge="1">
                    <mxGeometry width="50" height="50" relative="1" as="geometry">
                        <mxPoint x="580" y="480" as="sourcePoint"/>
                        <mxPoint x="500" y="520" as="targetPoint"/>
                    </mxGeometry>
                </mxCell>
                <mxCell id="108" value="５[制限文字数に問題がない場合]：&lt;br&gt;ユーザ情報を表示する(ユーザネーム、パスワード)" style="text;html=1;align=center;verticalAlign=middle;resizable=0;points=[];autosize=1;strokeColor=none;fillColor=none;" parent="1" vertex="1">
                    <mxGeometry x="240" y="470" width="300" height="40" as="geometry"/>
                </mxCell>
                <mxCell id="Q1mEJa5dFUFrGRtE1GUe-108" value="" style="group" parent="1" vertex="1" connectable="0">
                    <mxGeometry x="670" y="545" width="80" height="80" as="geometry"/>
                </mxCell>
                <mxCell id="Q1mEJa5dFUFrGRtE1GUe-109" value="：登録済ユーザ" style="ellipse;whiteSpace=wrap;html=1;aspect=fixed;" parent="Q1mEJa5dFUFrGRtE1GUe-108" vertex="1">
                    <mxGeometry width="80" height="80" as="geometry"/>
                </mxCell>
                <mxCell id="Q1mEJa5dFUFrGRtE1GUe-110" value="" style="endArrow=none;html=1;" parent="Q1mEJa5dFUFrGRtE1GUe-108" edge="1">
                    <mxGeometry width="50" height="50" relative="1" as="geometry">
                        <mxPoint y="80" as="sourcePoint"/>
                        <mxPoint x="80" y="80" as="targetPoint"/>
                    </mxGeometry>
                </mxCell>
                <mxCell id="Q1mEJa5dFUFrGRtE1GUe-111" value="" style="endArrow=none;html=1;entryX=0.5;entryY=0;entryDx=0;entryDy=0;exitX=0.5;exitY=1;exitDx=0;exitDy=0;" parent="1" source="102" target="Q1mEJa5dFUFrGRtE1GUe-109" edge="1">
                    <mxGeometry width="50" height="50" relative="1" as="geometry">
                        <mxPoint x="710" y="460" as="sourcePoint"/>
                        <mxPoint x="850" y="380" as="targetPoint"/>
                    </mxGeometry>
                </mxCell>
                <mxCell id="Q1mEJa5dFUFrGRtE1GUe-112" value="" style="endArrow=classic;html=1;" parent="1" edge="1">
                    <mxGeometry width="50" height="50" relative="1" as="geometry">
                        <mxPoint x="720" y="470" as="sourcePoint"/>
                        <mxPoint x="720" y="530" as="targetPoint"/>
                    </mxGeometry>
                </mxCell>
                <mxCell id="Q1mEJa5dFUFrGRtE1GUe-113" value="６：作成する&lt;br&gt;(ユーザネーム、パスワード)" style="text;html=1;align=center;verticalAlign=middle;resizable=0;points=[];autosize=1;strokeColor=none;fillColor=none;" parent="1" vertex="1">
                    <mxGeometry x="710" y="480" width="180" height="40" as="geometry"/>
                </mxCell>
                <mxCell id="Q1mEJa5dFUFrGRtE1GUe-115" value="" style="group" parent="1" vertex="1" connectable="0">
                    <mxGeometry x="590" y="870" width="80" height="90" as="geometry"/>
                </mxCell>
                <mxCell id="Q1mEJa5dFUFrGRtE1GUe-116" value="：ゲームコントロール" style="ellipse;whiteSpace=wrap;html=1;aspect=fixed;" parent="Q1mEJa5dFUFrGRtE1GUe-115" vertex="1">
                    <mxGeometry y="10" width="80" height="80" as="geometry"/>
                </mxCell>
                <mxCell id="Q1mEJa5dFUFrGRtE1GUe-117" value="" style="triangle;whiteSpace=wrap;html=1;rotation=-180;" parent="Q1mEJa5dFUFrGRtE1GUe-115" vertex="1">
                    <mxGeometry x="30" width="20" height="20" as="geometry"/>
                </mxCell>
                <mxCell id="Q1mEJa5dFUFrGRtE1GUe-119" value="" style="endArrow=classic;html=1;" parent="1" edge="1">
                    <mxGeometry width="50" height="50" relative="1" as="geometry">
                        <mxPoint x="464" y="910" as="sourcePoint"/>
                        <mxPoint x="544" y="910" as="targetPoint"/>
                    </mxGeometry>
                </mxCell>
                <mxCell id="Q1mEJa5dFUFrGRtE1GUe-123" value="４：ユーザ情報を確認する&lt;br&gt;(ユーザネーム、パスワード)" style="text;html=1;align=center;verticalAlign=middle;resizable=0;points=[];autosize=1;strokeColor=none;fillColor=none;" parent="1" vertex="1">
                    <mxGeometry x="414" y="870" width="180" height="40" as="geometry"/>
                </mxCell>
                <mxCell id="Q1mEJa5dFUFrGRtE1GUe-124" value="" style="endArrow=none;html=1;entryX=0;entryY=1;entryDx=0;entryDy=0;exitX=1;exitY=0.5;exitDx=0;exitDy=0;" parent="1" source="72" target="Q1mEJa5dFUFrGRtE1GUe-116" edge="1">
                    <mxGeometry width="50" height="50" relative="1" as="geometry">
                        <mxPoint x="400" y="1060" as="sourcePoint"/>
                        <mxPoint x="570" y="1010" as="targetPoint"/>
                    </mxGeometry>
                </mxCell>
                <mxCell id="Q1mEJa5dFUFrGRtE1GUe-125" value="" style="endArrow=classic;html=1;" parent="1" edge="1">
                    <mxGeometry width="50" height="50" relative="1" as="geometry">
                        <mxPoint x="520" y="990" as="sourcePoint"/>
                        <mxPoint x="430" y="1050" as="targetPoint"/>
                    </mxGeometry>
                </mxCell>
                <mxCell id="Q1mEJa5dFUFrGRtE1GUe-126" value="５[ユーザ情報が正しい場合]：表示する" style="text;html=1;align=center;verticalAlign=middle;resizable=0;points=[];autosize=1;strokeColor=none;fillColor=none;" parent="1" vertex="1">
                    <mxGeometry x="255" y="975" width="230" height="30" as="geometry"/>
                </mxCell>
                <mxCell id="Q1mEJa5dFUFrGRtE1GUe-128" value="：登録済ユーザ" style="shape=umlActor;verticalLabelPosition=bottom;verticalAlign=top;html=1;outlineConnect=0;" parent="1" vertex="1">
                    <mxGeometry x="50" y="1410" width="30" height="60" as="geometry"/>
                </mxCell>
                <mxCell id="Q1mEJa5dFUFrGRtE1GUe-129" value="" style="group" parent="1" vertex="1" connectable="0">
                    <mxGeometry x="290" y="1240" width="110" height="80" as="geometry"/>
                </mxCell>
                <mxCell id="Q1mEJa5dFUFrGRtE1GUe-130" value="：メイン画面" style="ellipse;whiteSpace=wrap;html=1;aspect=fixed;" parent="Q1mEJa5dFUFrGRtE1GUe-129" vertex="1">
                    <mxGeometry x="30" width="80" height="80" as="geometry"/>
                </mxCell>
                <mxCell id="Q1mEJa5dFUFrGRtE1GUe-131" value="" style="endArrow=none;html=1;entryX=0;entryY=0.5;entryDx=0;entryDy=0;" parent="Q1mEJa5dFUFrGRtE1GUe-129" target="Q1mEJa5dFUFrGRtE1GUe-130" edge="1">
                    <mxGeometry width="50" height="50" relative="1" as="geometry">
                        <mxPoint y="40" as="sourcePoint"/>
                        <mxPoint x="30" y="40" as="targetPoint"/>
                    </mxGeometry>
                </mxCell>
                <mxCell id="Q1mEJa5dFUFrGRtE1GUe-132" value="" style="endArrow=none;html=1;" parent="Q1mEJa5dFUFrGRtE1GUe-129" edge="1">
                    <mxGeometry width="50" height="50" relative="1" as="geometry">
                        <mxPoint y="70" as="sourcePoint"/>
                        <mxPoint y="10" as="targetPoint"/>
                    </mxGeometry>
                </mxCell>
                <mxCell id="Q1mEJa5dFUFrGRtE1GUe-133" value="" style="endArrow=none;html=1;" parent="1" edge="1">
                    <mxGeometry width="50" height="50" relative="1" as="geometry">
                        <mxPoint x="70" y="1400" as="sourcePoint"/>
                        <mxPoint x="280" y="1280" as="targetPoint"/>
                        <Array as="points">
                            <mxPoint x="70" y="1280"/>
                        </Array>
                    </mxGeometry>
                </mxCell>
                <mxCell id="Q1mEJa5dFUFrGRtE1GUe-134" value="１：掛け金入力を指示する()" style="text;html=1;align=center;verticalAlign=middle;resizable=0;points=[];autosize=1;strokeColor=none;fillColor=none;" parent="1" vertex="1">
                    <mxGeometry x="105" y="1240" width="180" height="30" as="geometry"/>
                </mxCell>
                <mxCell id="Q1mEJa5dFUFrGRtE1GUe-135" value="" style="endArrow=classic;html=1;" parent="1" edge="1">
                    <mxGeometry width="50" height="50" relative="1" as="geometry">
                        <mxPoint x="160" y="1270" as="sourcePoint"/>
                        <mxPoint x="240" y="1270" as="targetPoint"/>
                    </mxGeometry>
                </mxCell>
                <mxCell id="Q1mEJa5dFUFrGRtE1GUe-151" value="" style="group" parent="1" vertex="1" connectable="0">
                    <mxGeometry x="290" y="1400" width="110" height="80" as="geometry"/>
                </mxCell>
                <mxCell id="Q1mEJa5dFUFrGRtE1GUe-152" value="：掛け金入力画面" style="ellipse;whiteSpace=wrap;html=1;aspect=fixed;" parent="Q1mEJa5dFUFrGRtE1GUe-151" vertex="1">
                    <mxGeometry x="30" width="80" height="80" as="geometry"/>
                </mxCell>
                <mxCell id="Q1mEJa5dFUFrGRtE1GUe-153" value="" style="endArrow=none;html=1;entryX=0;entryY=0.5;entryDx=0;entryDy=0;" parent="Q1mEJa5dFUFrGRtE1GUe-151" target="Q1mEJa5dFUFrGRtE1GUe-152" edge="1">
                    <mxGeometry width="50" height="50" relative="1" as="geometry">
                        <mxPoint y="40" as="sourcePoint"/>
                        <mxPoint x="30" y="40" as="targetPoint"/>
                    </mxGeometry>
                </mxCell>
                <mxCell id="Q1mEJa5dFUFrGRtE1GUe-154" value="" style="endArrow=none;html=1;" parent="Q1mEJa5dFUFrGRtE1GUe-151" edge="1">
                    <mxGeometry width="50" height="50" relative="1" as="geometry">
                        <mxPoint y="70" as="sourcePoint"/>
                        <mxPoint y="10" as="targetPoint"/>
                    </mxGeometry>
                </mxCell>
                <mxCell id="Q1mEJa5dFUFrGRtE1GUe-155" value="" style="endArrow=none;html=1;" parent="1" edge="1">
                    <mxGeometry width="50" height="50" relative="1" as="geometry">
                        <mxPoint x="90" y="1440" as="sourcePoint"/>
                        <mxPoint x="280" y="1440" as="targetPoint"/>
                    </mxGeometry>
                </mxCell>
                <mxCell id="Q1mEJa5dFUFrGRtE1GUe-156" value="" style="endArrow=none;html=1;entryX=0.5;entryY=1;entryDx=0;entryDy=0;exitX=0.5;exitY=0;exitDx=0;exitDy=0;" parent="1" source="Q1mEJa5dFUFrGRtE1GUe-152" target="Q1mEJa5dFUFrGRtE1GUe-130" edge="1">
                    <mxGeometry width="50" height="50" relative="1" as="geometry">
                        <mxPoint x="310" y="1380" as="sourcePoint"/>
                        <mxPoint x="360" y="1330" as="targetPoint"/>
                    </mxGeometry>
                </mxCell>
                <mxCell id="Q1mEJa5dFUFrGRtE1GUe-157" value="" style="endArrow=classic;html=1;" parent="1" edge="1">
                    <mxGeometry width="50" height="50" relative="1" as="geometry">
                        <mxPoint x="370" y="1340" as="sourcePoint"/>
                        <mxPoint x="370" y="1390" as="targetPoint"/>
                    </mxGeometry>
                </mxCell>
                <mxCell id="Q1mEJa5dFUFrGRtE1GUe-158" value="２：表示する" style="text;html=1;align=center;verticalAlign=middle;resizable=0;points=[];autosize=1;strokeColor=none;fillColor=none;" parent="1" vertex="1">
                    <mxGeometry x="364" y="1350" width="100" height="30" as="geometry"/>
                </mxCell>
                <mxCell id="Q1mEJa5dFUFrGRtE1GUe-159" value="３：掛け金を入力する(掛け金)" style="text;html=1;align=center;verticalAlign=middle;resizable=0;points=[];autosize=1;strokeColor=none;fillColor=none;" parent="1" vertex="1">
                    <mxGeometry x="100" y="1400" width="190" height="30" as="geometry"/>
                </mxCell>
                <mxCell id="Q1mEJa5dFUFrGRtE1GUe-160" value="" style="endArrow=classic;html=1;" parent="1" edge="1">
                    <mxGeometry width="50" height="50" relative="1" as="geometry">
                        <mxPoint x="145" y="1430" as="sourcePoint"/>
                        <mxPoint x="225" y="1430" as="targetPoint"/>
                    </mxGeometry>
                </mxCell>
                <mxCell id="Q1mEJa5dFUFrGRtE1GUe-161" value="" style="group" parent="1" vertex="1" connectable="0">
                    <mxGeometry x="570" y="1390" width="80" height="90" as="geometry"/>
                </mxCell>
                <mxCell id="Q1mEJa5dFUFrGRtE1GUe-162" value="：ゲームコントロール" style="ellipse;whiteSpace=wrap;html=1;aspect=fixed;" parent="Q1mEJa5dFUFrGRtE1GUe-161" vertex="1">
                    <mxGeometry y="10" width="80" height="80" as="geometry"/>
                </mxCell>
                <mxCell id="Q1mEJa5dFUFrGRtE1GUe-163" value="" style="triangle;whiteSpace=wrap;html=1;rotation=-180;" parent="Q1mEJa5dFUFrGRtE1GUe-161" vertex="1">
                    <mxGeometry x="30" width="20" height="20" as="geometry"/>
                </mxCell>
                <mxCell id="Q1mEJa5dFUFrGRtE1GUe-164" value="" style="endArrow=none;html=1;exitX=1;exitY=0.5;exitDx=0;exitDy=0;entryX=0;entryY=0.5;entryDx=0;entryDy=0;" parent="1" source="Q1mEJa5dFUFrGRtE1GUe-152" target="Q1mEJa5dFUFrGRtE1GUe-162" edge="1">
                    <mxGeometry width="50" height="50" relative="1" as="geometry">
                        <mxPoint x="440" y="1450" as="sourcePoint"/>
                        <mxPoint x="490" y="1400" as="targetPoint"/>
                    </mxGeometry>
                </mxCell>
                <mxCell id="Q1mEJa5dFUFrGRtE1GUe-165" value="" style="endArrow=classic;html=1;" parent="1" edge="1">
                    <mxGeometry width="50" height="50" relative="1" as="geometry">
                        <mxPoint x="440" y="1430" as="sourcePoint"/>
                        <mxPoint x="520" y="1430" as="targetPoint"/>
                    </mxGeometry>
                </mxCell>
                <mxCell id="Q1mEJa5dFUFrGRtE1GUe-166" value="４：入力内容を確認する&lt;br&gt;(掛け金)" style="text;html=1;align=center;verticalAlign=middle;resizable=0;points=[];autosize=1;strokeColor=none;fillColor=none;" parent="1" vertex="1">
                    <mxGeometry x="400" y="1395" width="160" height="40" as="geometry"/>
                </mxCell>
                <mxCell id="Q1mEJa5dFUFrGRtE1GUe-167" value="" style="group" parent="1" vertex="1" connectable="0">
                    <mxGeometry x="827" y="1400" width="80" height="80" as="geometry"/>
                </mxCell>
                <mxCell id="Q1mEJa5dFUFrGRtE1GUe-168" value="：掛け金" style="ellipse;whiteSpace=wrap;html=1;aspect=fixed;" parent="Q1mEJa5dFUFrGRtE1GUe-167" vertex="1">
                    <mxGeometry width="80" height="80" as="geometry"/>
                </mxCell>
                <mxCell id="Q1mEJa5dFUFrGRtE1GUe-169" value="" style="endArrow=none;html=1;" parent="Q1mEJa5dFUFrGRtE1GUe-167" edge="1">
                    <mxGeometry width="50" height="50" relative="1" as="geometry">
                        <mxPoint y="80" as="sourcePoint"/>
                        <mxPoint x="80" y="80" as="targetPoint"/>
                    </mxGeometry>
                </mxCell>
                <mxCell id="Q1mEJa5dFUFrGRtE1GUe-170" value="" style="endArrow=none;html=1;entryX=0;entryY=0.5;entryDx=0;entryDy=0;exitX=1;exitY=0.5;exitDx=0;exitDy=0;" parent="1" source="Q1mEJa5dFUFrGRtE1GUe-162" target="Q1mEJa5dFUFrGRtE1GUe-168" edge="1">
                    <mxGeometry width="50" height="50" relative="1" as="geometry">
                        <mxPoint x="620" y="1540" as="sourcePoint"/>
                        <mxPoint x="670" y="1490" as="targetPoint"/>
                    </mxGeometry>
                </mxCell>
                <mxCell id="Q1mEJa5dFUFrGRtE1GUe-171" value="" style="endArrow=classic;html=1;" parent="1" edge="1">
                    <mxGeometry width="50" height="50" relative="1" as="geometry">
                        <mxPoint x="690" y="1430" as="sourcePoint"/>
                        <mxPoint x="770" y="1430" as="targetPoint"/>
                    </mxGeometry>
                </mxCell>
                <mxCell id="Q1mEJa5dFUFrGRtE1GUe-172" value="５：書式を確認する(入力内容)" style="text;html=1;align=center;verticalAlign=middle;resizable=0;points=[];autosize=1;strokeColor=none;fillColor=none;" parent="1" vertex="1">
                    <mxGeometry x="640" y="1400" width="190" height="30" as="geometry"/>
                </mxCell>
                <mxCell id="Q1mEJa5dFUFrGRtE1GUe-173" value="" style="group" parent="1" vertex="1" connectable="0">
                    <mxGeometry x="290" y="1560" width="110" height="80" as="geometry"/>
                </mxCell>
                <mxCell id="Q1mEJa5dFUFrGRtE1GUe-174" value="：掛け金確定画面" style="ellipse;whiteSpace=wrap;html=1;aspect=fixed;" parent="Q1mEJa5dFUFrGRtE1GUe-173" vertex="1">
                    <mxGeometry x="30" width="80" height="80" as="geometry"/>
                </mxCell>
                <mxCell id="Q1mEJa5dFUFrGRtE1GUe-175" value="" style="endArrow=none;html=1;entryX=0;entryY=0.5;entryDx=0;entryDy=0;" parent="Q1mEJa5dFUFrGRtE1GUe-173" target="Q1mEJa5dFUFrGRtE1GUe-174" edge="1">
                    <mxGeometry width="50" height="50" relative="1" as="geometry">
                        <mxPoint y="40" as="sourcePoint"/>
                        <mxPoint x="30" y="40" as="targetPoint"/>
                    </mxGeometry>
                </mxCell>
                <mxCell id="Q1mEJa5dFUFrGRtE1GUe-176" value="" style="endArrow=none;html=1;" parent="Q1mEJa5dFUFrGRtE1GUe-173" edge="1">
                    <mxGeometry width="50" height="50" relative="1" as="geometry">
                        <mxPoint y="70" as="sourcePoint"/>
                        <mxPoint y="10" as="targetPoint"/>
                    </mxGeometry>
                </mxCell>
                <mxCell id="Q1mEJa5dFUFrGRtE1GUe-178" value="" style="endArrow=none;html=1;exitX=1;exitY=0.5;exitDx=0;exitDy=0;entryX=0;entryY=1;entryDx=0;entryDy=0;" parent="1" source="Q1mEJa5dFUFrGRtE1GUe-174" target="Q1mEJa5dFUFrGRtE1GUe-162" edge="1">
                    <mxGeometry width="50" height="50" relative="1" as="geometry">
                        <mxPoint x="410" y="1580" as="sourcePoint"/>
                        <mxPoint x="460" y="1530" as="targetPoint"/>
                    </mxGeometry>
                </mxCell>
                <mxCell id="Q1mEJa5dFUFrGRtE1GUe-179" value="" style="endArrow=none;html=1;" parent="1" edge="1">
                    <mxGeometry width="50" height="50" relative="1" as="geometry">
                        <mxPoint x="280" y="1600" as="sourcePoint"/>
                        <mxPoint x="70" y="1500" as="targetPoint"/>
                        <Array as="points">
                            <mxPoint x="70" y="1600"/>
                        </Array>
                    </mxGeometry>
                </mxCell>
                <mxCell id="Q1mEJa5dFUFrGRtE1GUe-180" value="" style="endArrow=classic;html=1;" parent="1" edge="1">
                    <mxGeometry width="50" height="50" relative="1" as="geometry">
                        <mxPoint x="145" y="1590" as="sourcePoint"/>
                        <mxPoint x="225" y="1590" as="targetPoint"/>
                    </mxGeometry>
                </mxCell>
                <mxCell id="Q1mEJa5dFUFrGRtE1GUe-183" value="８：掛け金を確定する()" style="text;html=1;align=center;verticalAlign=middle;resizable=0;points=[];autosize=1;strokeColor=none;fillColor=none;" parent="1" vertex="1">
                    <mxGeometry x="110" y="1560" width="150" height="30" as="geometry"/>
                </mxCell>
                <mxCell id="Q1mEJa5dFUFrGRtE1GUe-184" value="６[掛け金が未入力の場合]：&lt;br&gt;掛け金を1000円に設定する" style="text;html=1;align=center;verticalAlign=middle;resizable=0;points=[];autosize=1;strokeColor=none;fillColor=none;" parent="1" vertex="1">
                    <mxGeometry x="650" y="1350" width="170" height="40" as="geometry"/>
                </mxCell>
                <mxCell id="Q1mEJa5dFUFrGRtE1GUe-185" value="" style="endArrow=classic;html=1;" parent="1" edge="1">
                    <mxGeometry width="50" height="50" relative="1" as="geometry">
                        <mxPoint x="500" y="1510" as="sourcePoint"/>
                        <mxPoint x="430" y="1560" as="targetPoint"/>
                    </mxGeometry>
                </mxCell>
                <mxCell id="Q1mEJa5dFUFrGRtE1GUe-186" value="７[掛け金が未入力、又は書式が正しい場合]：&lt;br&gt;掛け金を表示する(掛け金)" style="text;html=1;align=center;verticalAlign=middle;resizable=0;points=[];autosize=1;strokeColor=none;fillColor=none;" parent="1" vertex="1">
                    <mxGeometry x="225" y="1500" width="270" height="40" as="geometry"/>
                </mxCell>
                <mxCell id="Q1mEJa5dFUFrGRtE1GUe-187" value="：登録済ユーザ" style="shape=umlActor;verticalLabelPosition=bottom;verticalAlign=top;html=1;outlineConnect=0;" parent="1" vertex="1">
                    <mxGeometry x="50" y="1740" width="30" height="60" as="geometry"/>
                </mxCell>
                <mxCell id="Q1mEJa5dFUFrGRtE1GUe-193" value="" style="endArrow=none;html=1;" parent="1" edge="1">
                    <mxGeometry width="50" height="50" relative="1" as="geometry">
                        <mxPoint x="90" y="1770" as="sourcePoint"/>
                        <mxPoint x="280" y="1770" as="targetPoint"/>
                    </mxGeometry>
                </mxCell>
                <mxCell id="Q1mEJa5dFUFrGRtE1GUe-194" value="" style="endArrow=classic;html=1;" parent="1" edge="1">
                    <mxGeometry width="50" height="50" relative="1" as="geometry">
                        <mxPoint x="145" y="1760" as="sourcePoint"/>
                        <mxPoint x="225" y="1760" as="targetPoint"/>
                    </mxGeometry>
                </mxCell>
                <mxCell id="Q1mEJa5dFUFrGRtE1GUe-195" value="１：ゲーム開始を指示する()" style="text;html=1;align=center;verticalAlign=middle;resizable=0;points=[];autosize=1;strokeColor=none;fillColor=none;" parent="1" vertex="1">
                    <mxGeometry x="100" y="1730" width="180" height="30" as="geometry"/>
                </mxCell>
                <mxCell id="Q1mEJa5dFUFrGRtE1GUe-196" value="" style="group" parent="1" vertex="1" connectable="0">
                    <mxGeometry x="580" y="1720" width="80" height="90" as="geometry"/>
                </mxCell>
                <mxCell id="Q1mEJa5dFUFrGRtE1GUe-197" value="：ゲームコントロール" style="ellipse;whiteSpace=wrap;html=1;aspect=fixed;" parent="Q1mEJa5dFUFrGRtE1GUe-196" vertex="1">
                    <mxGeometry y="10" width="80" height="80" as="geometry"/>
                </mxCell>
                <mxCell id="Q1mEJa5dFUFrGRtE1GUe-198" value="" style="triangle;whiteSpace=wrap;html=1;rotation=-180;" parent="Q1mEJa5dFUFrGRtE1GUe-196" vertex="1">
                    <mxGeometry x="30" width="20" height="20" as="geometry"/>
                </mxCell>
                <mxCell id="Q1mEJa5dFUFrGRtE1GUe-209" value="：登録済ユーザ" style="shape=umlActor;verticalLabelPosition=bottom;verticalAlign=top;html=1;outlineConnect=0;" parent="1" vertex="1">
                    <mxGeometry x="982.5" y="40" width="30" height="60" as="geometry"/>
                </mxCell>
                <mxCell id="Q1mEJa5dFUFrGRtE1GUe-210" value="" style="endArrow=classic;html=1;" parent="1" edge="1">
                    <mxGeometry width="50" height="50" relative="1" as="geometry">
                        <mxPoint x="695" y="1390" as="sourcePoint"/>
                        <mxPoint x="775" y="1390" as="targetPoint"/>
                    </mxGeometry>
                </mxCell>
                <mxCell id="Q1mEJa5dFUFrGRtE1GUe-214" value="" style="group" parent="1" vertex="1" connectable="0">
                    <mxGeometry x="1210" y="215" width="80" height="90" as="geometry"/>
                </mxCell>
                <mxCell id="Q1mEJa5dFUFrGRtE1GUe-215" value="：ゲームコントロール" style="ellipse;whiteSpace=wrap;html=1;aspect=fixed;" parent="Q1mEJa5dFUFrGRtE1GUe-214" vertex="1">
                    <mxGeometry y="10" width="80" height="80" as="geometry"/>
                </mxCell>
                <mxCell id="Q1mEJa5dFUFrGRtE1GUe-216" value="" style="triangle;whiteSpace=wrap;html=1;rotation=-180;" parent="Q1mEJa5dFUFrGRtE1GUe-214" vertex="1">
                    <mxGeometry x="30" width="20" height="20" as="geometry"/>
                </mxCell>
                <mxCell id="Q1mEJa5dFUFrGRtE1GUe-219" value="" style="endArrow=none;html=1;entryX=0;entryY=0.5;entryDx=0;entryDy=0;exitX=1;exitY=0.5;exitDx=0;exitDy=0;" parent="1" source="114" target="Q1mEJa5dFUFrGRtE1GUe-215" edge="1">
                    <mxGeometry width="50" height="50" relative="1" as="geometry">
                        <mxPoint x="1050" y="265" as="sourcePoint"/>
                        <mxPoint x="1050" y="220" as="targetPoint"/>
                    </mxGeometry>
                </mxCell>
                <mxCell id="Q1mEJa5dFUFrGRtE1GUe-220" value="" style="endArrow=none;html=1;entryX=0;entryY=0.5;entryDx=0;entryDy=0;" parent="1" target="90" edge="1">
                    <mxGeometry width="50" height="50" relative="1" as="geometry">
                        <mxPoint x="1250" y="210" as="sourcePoint"/>
                        <mxPoint x="1320" y="140" as="targetPoint"/>
                        <Array as="points">
                            <mxPoint x="1250" y="120"/>
                        </Array>
                    </mxGeometry>
                </mxCell>
                <mxCell id="Q1mEJa5dFUFrGRtE1GUe-221" value="" style="endArrow=classic;html=1;" parent="1" edge="1">
                    <mxGeometry width="50" height="50" relative="1" as="geometry">
                        <mxPoint x="1320" y="110" as="sourcePoint"/>
                        <mxPoint x="1400" y="110" as="targetPoint"/>
                    </mxGeometry>
                </mxCell>
                <mxCell id="Q1mEJa5dFUFrGRtE1GUe-222" value="３：ランダムにカードを1枚選ぶ()" style="text;html=1;align=center;verticalAlign=middle;resizable=0;points=[];autosize=1;strokeColor=none;fillColor=none;" parent="1" vertex="1">
                    <mxGeometry x="1255" y="80" width="210" height="30" as="geometry"/>
                </mxCell>
                <mxCell id="Q1mEJa5dFUFrGRtE1GUe-223" value="" style="group" parent="1" vertex="1" connectable="0">
                    <mxGeometry x="1440" y="1440" width="80" height="80" as="geometry"/>
                </mxCell>
                <mxCell id="Q1mEJa5dFUFrGRtE1GUe-224" value="：掛け金" style="ellipse;whiteSpace=wrap;html=1;aspect=fixed;" parent="Q1mEJa5dFUFrGRtE1GUe-223" vertex="1">
                    <mxGeometry width="80" height="80" as="geometry"/>
                </mxCell>
                <mxCell id="Q1mEJa5dFUFrGRtE1GUe-225" value="" style="endArrow=none;html=1;" parent="Q1mEJa5dFUFrGRtE1GUe-223" edge="1">
                    <mxGeometry width="50" height="50" relative="1" as="geometry">
                        <mxPoint y="80" as="sourcePoint"/>
                        <mxPoint x="80" y="80" as="targetPoint"/>
                    </mxGeometry>
                </mxCell>
                <mxCell id="Q1mEJa5dFUFrGRtE1GUe-226" value="" style="group" parent="1" vertex="1" connectable="0">
                    <mxGeometry x="1180" y="400" width="110" height="80" as="geometry"/>
                </mxCell>
                <mxCell id="Q1mEJa5dFUFrGRtE1GUe-227" value="：「BUST」画面" style="ellipse;whiteSpace=wrap;html=1;aspect=fixed;" parent="Q1mEJa5dFUFrGRtE1GUe-226" vertex="1">
                    <mxGeometry x="30" width="80" height="80" as="geometry"/>
                </mxCell>
                <mxCell id="Q1mEJa5dFUFrGRtE1GUe-228" value="" style="endArrow=none;html=1;entryX=0;entryY=0.5;entryDx=0;entryDy=0;" parent="Q1mEJa5dFUFrGRtE1GUe-226" target="Q1mEJa5dFUFrGRtE1GUe-227" edge="1">
                    <mxGeometry width="50" height="50" relative="1" as="geometry">
                        <mxPoint y="40" as="sourcePoint"/>
                        <mxPoint x="30" y="40" as="targetPoint"/>
                    </mxGeometry>
                </mxCell>
                <mxCell id="Q1mEJa5dFUFrGRtE1GUe-229" value="" style="endArrow=none;html=1;" parent="Q1mEJa5dFUFrGRtE1GUe-226" edge="1">
                    <mxGeometry width="50" height="50" relative="1" as="geometry">
                        <mxPoint y="70" as="sourcePoint"/>
                        <mxPoint y="10" as="targetPoint"/>
                    </mxGeometry>
                </mxCell>
                <mxCell id="Q1mEJa5dFUFrGRtE1GUe-230" value="" style="group" parent="1" vertex="1" connectable="0">
                    <mxGeometry x="1460" y="225" width="80" height="80" as="geometry"/>
                </mxCell>
                <mxCell id="Q1mEJa5dFUFrGRtE1GUe-231" value="：手札" style="ellipse;whiteSpace=wrap;html=1;aspect=fixed;" parent="Q1mEJa5dFUFrGRtE1GUe-230" vertex="1">
                    <mxGeometry width="80" height="80" as="geometry"/>
                </mxCell>
                <mxCell id="Q1mEJa5dFUFrGRtE1GUe-232" value="" style="endArrow=none;html=1;" parent="Q1mEJa5dFUFrGRtE1GUe-230" edge="1">
                    <mxGeometry width="50" height="50" relative="1" as="geometry">
                        <mxPoint y="80" as="sourcePoint"/>
                        <mxPoint x="80" y="80" as="targetPoint"/>
                    </mxGeometry>
                </mxCell>
                <mxCell id="Q1mEJa5dFUFrGRtE1GUe-233" value="" style="endArrow=none;html=1;exitX=1;exitY=0.5;exitDx=0;exitDy=0;entryX=0;entryY=0.5;entryDx=0;entryDy=0;" parent="1" source="Q1mEJa5dFUFrGRtE1GUe-215" target="Q1mEJa5dFUFrGRtE1GUe-231" edge="1">
                    <mxGeometry width="50" height="50" relative="1" as="geometry">
                        <mxPoint x="1330" y="280" as="sourcePoint"/>
                        <mxPoint x="1380" y="230" as="targetPoint"/>
                    </mxGeometry>
                </mxCell>
                <mxCell id="Q1mEJa5dFUFrGRtE1GUe-234" value="" style="endArrow=classic;html=1;" parent="1" edge="1">
                    <mxGeometry width="50" height="50" relative="1" as="geometry">
                        <mxPoint x="1340" y="250" as="sourcePoint"/>
                        <mxPoint x="1420" y="250" as="targetPoint"/>
                    </mxGeometry>
                </mxCell>
                <mxCell id="Q1mEJa5dFUFrGRtE1GUe-235" value="４：カードを1枚追加する(カード)" style="text;html=1;align=center;verticalAlign=middle;resizable=0;points=[];autosize=1;strokeColor=none;fillColor=none;" parent="1" vertex="1">
                    <mxGeometry x="1270" y="220" width="210" height="30" as="geometry"/>
                </mxCell>
                <mxCell id="Q1mEJa5dFUFrGRtE1GUe-236" value="" style="endArrow=none;html=1;exitX=0.5;exitY=0;exitDx=0;exitDy=0;" parent="1" source="Q1mEJa5dFUFrGRtE1GUe-231" target="90" edge="1">
                    <mxGeometry width="50" height="50" relative="1" as="geometry">
                        <mxPoint x="1520" y="220" as="sourcePoint"/>
                        <mxPoint x="1570" y="170" as="targetPoint"/>
                    </mxGeometry>
                </mxCell>
                <mxCell id="Q1mEJa5dFUFrGRtE1GUe-237" value="" style="endArrow=none;html=1;entryX=0.5;entryY=1;entryDx=0;entryDy=0;exitX=0.5;exitY=0;exitDx=0;exitDy=0;" parent="1" source="Q1mEJa5dFUFrGRtE1GUe-227" target="Q1mEJa5dFUFrGRtE1GUe-215" edge="1">
                    <mxGeometry width="50" height="50" relative="1" as="geometry">
                        <mxPoint x="1230" y="370" as="sourcePoint"/>
                        <mxPoint x="1280" y="320" as="targetPoint"/>
                    </mxGeometry>
                </mxCell>
                <mxCell id="Q1mEJa5dFUFrGRtE1GUe-238" value="" style="endArrow=classic;html=1;" parent="1" edge="1">
                    <mxGeometry width="50" height="50" relative="1" as="geometry">
                        <mxPoint x="1260" y="330" as="sourcePoint"/>
                        <mxPoint x="1260" y="380" as="targetPoint"/>
                    </mxGeometry>
                </mxCell>
                <mxCell id="Q1mEJa5dFUFrGRtE1GUe-239" value="５[手札の点数の合計が21を超えた場合]：&lt;br&gt;「BUST」画面を表示する" style="text;html=1;align=center;verticalAlign=middle;resizable=0;points=[];autosize=1;strokeColor=none;fillColor=none;" parent="1" vertex="1">
                    <mxGeometry x="1250" y="340" width="250" height="40" as="geometry"/>
                </mxCell>
                <mxCell id="Q1mEJa5dFUFrGRtE1GUe-245" value="：登録済ユーザ" style="shape=umlActor;verticalLabelPosition=bottom;verticalAlign=top;html=1;outlineConnect=0;" parent="1" vertex="1">
                    <mxGeometry x="1026" y="549" width="30" height="60" as="geometry"/>
                </mxCell>
                <mxCell id="Q1mEJa5dFUFrGRtE1GUe-246" value="" style="group" parent="1" vertex="1" connectable="0">
                    <mxGeometry x="1192" y="709" width="80" height="90" as="geometry"/>
                </mxCell>
                <mxCell id="Q1mEJa5dFUFrGRtE1GUe-247" value="：ゲームコントロール" style="ellipse;whiteSpace=wrap;html=1;aspect=fixed;" parent="Q1mEJa5dFUFrGRtE1GUe-246" vertex="1">
                    <mxGeometry y="10" width="80" height="80" as="geometry"/>
                </mxCell>
                <mxCell id="Q1mEJa5dFUFrGRtE1GUe-248" value="" style="triangle;whiteSpace=wrap;html=1;rotation=-180;" parent="Q1mEJa5dFUFrGRtE1GUe-246" vertex="1">
                    <mxGeometry x="30" width="20" height="20" as="geometry"/>
                </mxCell>
                <mxCell id="Q1mEJa5dFUFrGRtE1GUe-249" value="" style="endArrow=none;html=1;entryX=0.5;entryY=0;entryDx=0;entryDy=0;" parent="1" target="138" edge="1">
                    <mxGeometry width="50" height="50" relative="1" as="geometry">
                        <mxPoint x="1039" y="634" as="sourcePoint"/>
                        <mxPoint x="872" y="759" as="targetPoint"/>
                    </mxGeometry>
                </mxCell>
                <mxCell id="Q1mEJa5dFUFrGRtE1GUe-250" value="" style="endArrow=classic;html=1;" parent="1" edge="1">
                    <mxGeometry width="50" height="50" relative="1" as="geometry">
                        <mxPoint x="1026" y="644" as="sourcePoint"/>
                        <mxPoint x="1026" y="704" as="targetPoint"/>
                    </mxGeometry>
                </mxCell>
                <mxCell id="Q1mEJa5dFUFrGRtE1GUe-251" value="１：「スタンド」ボタンを押す()" style="text;html=1;align=center;verticalAlign=middle;resizable=0;points=[];autosize=1;strokeColor=none;fillColor=none;" parent="1" vertex="1">
                    <mxGeometry x="827" y="659" width="200" height="30" as="geometry"/>
                </mxCell>
                <mxCell id="Q1mEJa5dFUFrGRtE1GUe-253" value="" style="group" parent="1" vertex="1" connectable="0">
                    <mxGeometry x="1472" y="579" width="80" height="80" as="geometry"/>
                </mxCell>
                <mxCell id="Q1mEJa5dFUFrGRtE1GUe-254" value="：ディーラー" style="ellipse;whiteSpace=wrap;html=1;aspect=fixed;" parent="Q1mEJa5dFUFrGRtE1GUe-253" vertex="1">
                    <mxGeometry width="80" height="80" as="geometry"/>
                </mxCell>
                <mxCell id="Q1mEJa5dFUFrGRtE1GUe-255" value="" style="endArrow=none;html=1;" parent="Q1mEJa5dFUFrGRtE1GUe-253" edge="1">
                    <mxGeometry width="50" height="50" relative="1" as="geometry">
                        <mxPoint y="80" as="sourcePoint"/>
                        <mxPoint x="80" y="80" as="targetPoint"/>
                    </mxGeometry>
                </mxCell>
                <mxCell id="Q1mEJa5dFUFrGRtE1GUe-256" value="" style="endArrow=none;html=1;entryX=0;entryY=0.5;entryDx=0;entryDy=0;" parent="1" target="Q1mEJa5dFUFrGRtE1GUe-254" edge="1">
                    <mxGeometry width="50" height="50" relative="1" as="geometry">
                        <mxPoint x="1232" y="699" as="sourcePoint"/>
                        <mxPoint x="1282" y="659" as="targetPoint"/>
                        <Array as="points">
                            <mxPoint x="1232" y="619"/>
                        </Array>
                    </mxGeometry>
                </mxCell>
                <mxCell id="Q1mEJa5dFUFrGRtE1GUe-257" value="" style="endArrow=classic;html=1;" parent="1" edge="1">
                    <mxGeometry width="50" height="50" relative="1" as="geometry">
                        <mxPoint x="1272" y="609" as="sourcePoint"/>
                        <mxPoint x="1352" y="609" as="targetPoint"/>
                    </mxGeometry>
                </mxCell>
                <mxCell id="Q1mEJa5dFUFrGRtE1GUe-258" value="３[ディーラーの手札の点数の合計が17点以下の場合]：&lt;br&gt;カードを1枚追加する(カード)" style="text;html=1;align=center;verticalAlign=middle;resizable=0;points=[];autosize=1;strokeColor=none;fillColor=none;" parent="1" vertex="1">
                    <mxGeometry x="1152" y="569" width="320" height="40" as="geometry"/>
                </mxCell>
                <mxCell id="Q1mEJa5dFUFrGRtE1GUe-259" value="" style="group" parent="1" vertex="1" connectable="0">
                    <mxGeometry x="1472" y="719" width="80" height="80" as="geometry"/>
                </mxCell>
                <mxCell id="Q1mEJa5dFUFrGRtE1GUe-260" value="：手札" style="ellipse;whiteSpace=wrap;html=1;aspect=fixed;" parent="Q1mEJa5dFUFrGRtE1GUe-259" vertex="1">
                    <mxGeometry width="80" height="80" as="geometry"/>
                </mxCell>
                <mxCell id="Q1mEJa5dFUFrGRtE1GUe-261" value="" style="endArrow=none;html=1;" parent="Q1mEJa5dFUFrGRtE1GUe-259" edge="1">
                    <mxGeometry width="50" height="50" relative="1" as="geometry">
                        <mxPoint y="80" as="sourcePoint"/>
                        <mxPoint x="80" y="80" as="targetPoint"/>
                    </mxGeometry>
                </mxCell>
                <mxCell id="Q1mEJa5dFUFrGRtE1GUe-262" value="" style="endArrow=none;html=1;exitX=1;exitY=0.5;exitDx=0;exitDy=0;" parent="1" source="Q1mEJa5dFUFrGRtE1GUe-247" target="Q1mEJa5dFUFrGRtE1GUe-260" edge="1">
                    <mxGeometry width="50" height="50" relative="1" as="geometry">
                        <mxPoint x="1322" y="779" as="sourcePoint"/>
                        <mxPoint x="1372" y="729" as="targetPoint"/>
                    </mxGeometry>
                </mxCell>
                <mxCell id="Q1mEJa5dFUFrGRtE1GUe-264" value="" style="endArrow=none;html=1;entryX=0.5;entryY=0;entryDx=0;entryDy=0;" parent="1" source="Q1mEJa5dFUFrGRtE1GUe-254" target="Q1mEJa5dFUFrGRtE1GUe-260" edge="1">
                    <mxGeometry width="50" height="50" relative="1" as="geometry">
                        <mxPoint x="1392" y="749" as="sourcePoint"/>
                        <mxPoint x="1442" y="699" as="targetPoint"/>
                    </mxGeometry>
                </mxCell>
                <mxCell id="Q1mEJa5dFUFrGRtE1GUe-265" value="" style="endArrow=classic;html=1;" parent="1" edge="1">
                    <mxGeometry width="50" height="50" relative="1" as="geometry">
                        <mxPoint x="1352" y="748.5" as="sourcePoint"/>
                        <mxPoint x="1432" y="748.5" as="targetPoint"/>
                    </mxGeometry>
                </mxCell>
                <mxCell id="Q1mEJa5dFUFrGRtE1GUe-266" value="４：手札の点数を比較する(ディーラー)" style="text;html=1;align=center;verticalAlign=middle;resizable=0;points=[];autosize=1;strokeColor=none;fillColor=none;" parent="1" vertex="1">
                    <mxGeometry x="1252" y="719" width="240" height="30" as="geometry"/>
                </mxCell>
                <mxCell id="Q1mEJa5dFUFrGRtE1GUe-267" value="" style="group" parent="1" vertex="1" connectable="0">
                    <mxGeometry x="1447" y="884" width="140" height="155" as="geometry"/>
                </mxCell>
                <mxCell id="Q1mEJa5dFUFrGRtE1GUe-268" value="：結果出力画面" style="ellipse;whiteSpace=wrap;html=1;aspect=fixed;" parent="Q1mEJa5dFUFrGRtE1GUe-267" vertex="1">
                    <mxGeometry x="30" width="80" height="80" as="geometry"/>
                </mxCell>
                <mxCell id="Q1mEJa5dFUFrGRtE1GUe-269" value="" style="endArrow=none;html=1;entryX=0;entryY=0.5;entryDx=0;entryDy=0;" parent="Q1mEJa5dFUFrGRtE1GUe-267" target="Q1mEJa5dFUFrGRtE1GUe-268" edge="1">
                    <mxGeometry width="50" height="50" relative="1" as="geometry">
                        <mxPoint y="40" as="sourcePoint"/>
                        <mxPoint x="30" y="40" as="targetPoint"/>
                    </mxGeometry>
                </mxCell>
                <mxCell id="Q1mEJa5dFUFrGRtE1GUe-270" value="" style="endArrow=none;html=1;" parent="Q1mEJa5dFUFrGRtE1GUe-267" edge="1">
                    <mxGeometry width="50" height="50" relative="1" as="geometry">
                        <mxPoint y="70" as="sourcePoint"/>
                        <mxPoint y="10" as="targetPoint"/>
                    </mxGeometry>
                </mxCell>
                <mxCell id="Q1mEJa5dFUFrGRtE1GUe-271" value="" style="group" parent="1" vertex="1" connectable="0">
                    <mxGeometry x="972" y="889" width="110" height="80" as="geometry"/>
                </mxCell>
                <mxCell id="Q1mEJa5dFUFrGRtE1GUe-272" value=":結果出力画面" style="ellipse;whiteSpace=wrap;html=1;aspect=fixed;" parent="Q1mEJa5dFUFrGRtE1GUe-271" vertex="1">
                    <mxGeometry x="30" width="80" height="80" as="geometry"/>
                </mxCell>
                <mxCell id="Q1mEJa5dFUFrGRtE1GUe-273" value="" style="endArrow=none;html=1;entryX=0;entryY=0.5;entryDx=0;entryDy=0;" parent="Q1mEJa5dFUFrGRtE1GUe-271" target="Q1mEJa5dFUFrGRtE1GUe-272" edge="1">
                    <mxGeometry width="50" height="50" relative="1" as="geometry">
                        <mxPoint y="40" as="sourcePoint"/>
                        <mxPoint x="30" y="40" as="targetPoint"/>
                    </mxGeometry>
                </mxCell>
                <mxCell id="Q1mEJa5dFUFrGRtE1GUe-274" value="" style="endArrow=none;html=1;" parent="Q1mEJa5dFUFrGRtE1GUe-271" edge="1">
                    <mxGeometry width="50" height="50" relative="1" as="geometry">
                        <mxPoint y="70" as="sourcePoint"/>
                        <mxPoint y="10" as="targetPoint"/>
                    </mxGeometry>
                </mxCell>
                <mxCell id="Q1mEJa5dFUFrGRtE1GUe-275" value="" style="group" parent="1" vertex="1" connectable="0">
                    <mxGeometry x="1447" y="1089" width="110" height="80" as="geometry"/>
                </mxCell>
                <mxCell id="Q1mEJa5dFUFrGRtE1GUe-276" value="：結果出力画面" style="ellipse;whiteSpace=wrap;html=1;aspect=fixed;" parent="Q1mEJa5dFUFrGRtE1GUe-275" vertex="1">
                    <mxGeometry x="30" width="80" height="80" as="geometry"/>
                </mxCell>
                <mxCell id="Q1mEJa5dFUFrGRtE1GUe-277" value="" style="endArrow=none;html=1;entryX=0;entryY=0.5;entryDx=0;entryDy=0;" parent="Q1mEJa5dFUFrGRtE1GUe-275" target="Q1mEJa5dFUFrGRtE1GUe-276" edge="1">
                    <mxGeometry width="50" height="50" relative="1" as="geometry">
                        <mxPoint y="40" as="sourcePoint"/>
                        <mxPoint x="30" y="40" as="targetPoint"/>
                    </mxGeometry>
                </mxCell>
                <mxCell id="Q1mEJa5dFUFrGRtE1GUe-278" value="" style="endArrow=none;html=1;" parent="Q1mEJa5dFUFrGRtE1GUe-275" edge="1">
                    <mxGeometry width="50" height="50" relative="1" as="geometry">
                        <mxPoint y="70" as="sourcePoint"/>
                        <mxPoint y="10" as="targetPoint"/>
                    </mxGeometry>
                </mxCell>
                <mxCell id="Q1mEJa5dFUFrGRtE1GUe-279" value="" style="endArrow=none;html=1;" parent="1" edge="1">
                    <mxGeometry width="50" height="50" relative="1" as="geometry">
                        <mxPoint x="1437" y="1129" as="sourcePoint"/>
                        <mxPoint x="1232" y="809" as="targetPoint"/>
                        <Array as="points">
                            <mxPoint x="1232" y="1129"/>
                        </Array>
                    </mxGeometry>
                </mxCell>
                <mxCell id="Q1mEJa5dFUFrGRtE1GUe-280" value="" style="endArrow=none;html=1;" parent="1" edge="1">
                    <mxGeometry width="50" height="50" relative="1" as="geometry">
                        <mxPoint x="1437" y="929" as="sourcePoint"/>
                        <mxPoint x="1252" y="799" as="targetPoint"/>
                        <Array as="points">
                            <mxPoint x="1252" y="929"/>
                        </Array>
                    </mxGeometry>
                </mxCell>
                <mxCell id="Q1mEJa5dFUFrGRtE1GUe-281" value="" style="endArrow=none;html=1;exitX=1;exitY=0.5;exitDx=0;exitDy=0;" parent="1" source="Q1mEJa5dFUFrGRtE1GUe-272" edge="1">
                    <mxGeometry width="50" height="50" relative="1" as="geometry">
                        <mxPoint x="1177" y="889" as="sourcePoint"/>
                        <mxPoint x="1212" y="799" as="targetPoint"/>
                        <Array as="points">
                            <mxPoint x="1212" y="929"/>
                        </Array>
                    </mxGeometry>
                </mxCell>
                <mxCell id="Q1mEJa5dFUFrGRtE1GUe-282" value="" style="endArrow=classic;html=1;" parent="1" edge="1">
                    <mxGeometry width="50" height="50" relative="1" as="geometry">
                        <mxPoint x="1198" y="829" as="sourcePoint"/>
                        <mxPoint x="1198" y="909" as="targetPoint"/>
                    </mxGeometry>
                </mxCell>
                <mxCell id="Q1mEJa5dFUFrGRtE1GUe-283" value="５[ディーラーの手札の点数が21点を超える、&lt;br&gt;又は登録済ユーザーの手札の点数がディーラーより高い場合]：&lt;br&gt;「YOU WIN」画面を表示する" style="text;html=1;align=center;verticalAlign=middle;resizable=0;points=[];autosize=1;strokeColor=none;fillColor=none;" parent="1" vertex="1">
                    <mxGeometry x="832" y="829" width="360" height="60" as="geometry"/>
                </mxCell>
                <mxCell id="Q1mEJa5dFUFrGRtE1GUe-284" value="" style="endArrow=classic;html=1;" parent="1" edge="1">
                    <mxGeometry width="50" height="50" relative="1" as="geometry">
                        <mxPoint x="1277" y="829" as="sourcePoint"/>
                        <mxPoint x="1277" y="909" as="targetPoint"/>
                    </mxGeometry>
                </mxCell>
                <mxCell id="Q1mEJa5dFUFrGRtE1GUe-285" value="６[登録済ユーザの手札の点数がディーラーより低い時]：&lt;br&gt;「YOU LOSE」画面を表示する" style="text;html=1;align=center;verticalAlign=middle;resizable=0;points=[];autosize=1;strokeColor=none;fillColor=none;" parent="1" vertex="1">
                    <mxGeometry x="1267" y="834" width="330" height="40" as="geometry"/>
                </mxCell>
                <mxCell id="Q1mEJa5dFUFrGRtE1GUe-286" value="" style="endArrow=classic;html=1;" parent="1" edge="1">
                    <mxGeometry width="50" height="50" relative="1" as="geometry">
                        <mxPoint x="1247" y="989" as="sourcePoint"/>
                        <mxPoint x="1247" y="1069" as="targetPoint"/>
                    </mxGeometry>
                </mxCell>
                <mxCell id="Q1mEJa5dFUFrGRtE1GUe-287" value="７[登録済ユーザの手札の点数と&lt;br&gt;ディーラーの手札の点数が同じの場合]：&lt;br&gt;「DRAW」画面を表示する" style="text;html=1;align=center;verticalAlign=middle;resizable=0;points=[];autosize=1;strokeColor=none;fillColor=none;" parent="1" vertex="1">
                    <mxGeometry x="1247" y="999" width="240" height="60" as="geometry"/>
                </mxCell>
                <mxCell id="Q1mEJa5dFUFrGRtE1GUe-288" value="：登録済ユーザ" style="shape=umlActor;verticalLabelPosition=bottom;verticalAlign=top;html=1;outlineConnect=0;" parent="1" vertex="1">
                    <mxGeometry x="940" y="1250" width="30" height="60" as="geometry"/>
                </mxCell>
                <mxCell id="Q1mEJa5dFUFrGRtE1GUe-290" value="" style="group" parent="1" vertex="1" connectable="0">
                    <mxGeometry x="1440" y="1230" width="80" height="90" as="geometry"/>
                </mxCell>
                <mxCell id="Q1mEJa5dFUFrGRtE1GUe-291" value="：ゲームコントロール" style="ellipse;whiteSpace=wrap;html=1;aspect=fixed;" parent="Q1mEJa5dFUFrGRtE1GUe-290" vertex="1">
                    <mxGeometry y="10" width="80" height="80" as="geometry"/>
                </mxCell>
                <mxCell id="Q1mEJa5dFUFrGRtE1GUe-292" value="" style="triangle;whiteSpace=wrap;html=1;rotation=-180;" parent="Q1mEJa5dFUFrGRtE1GUe-290" vertex="1">
                    <mxGeometry x="30" width="20" height="20" as="geometry"/>
                </mxCell>
                <mxCell id="Q1mEJa5dFUFrGRtE1GUe-293" value="" style="endArrow=none;html=1;" parent="1" edge="1">
                    <mxGeometry width="50" height="50" relative="1" as="geometry">
                        <mxPoint x="1000" y="1280" as="sourcePoint"/>
                        <mxPoint x="1160" y="1280" as="targetPoint"/>
                    </mxGeometry>
                </mxCell>
                <mxCell id="Q1mEJa5dFUFrGRtE1GUe-294" value="" style="edgeStyle=none;orthogonalLoop=1;jettySize=auto;html=1;" parent="1" edge="1">
                    <mxGeometry width="100" relative="1" as="geometry">
                        <mxPoint x="1020" y="1270" as="sourcePoint"/>
                        <mxPoint x="1120" y="1270" as="targetPoint"/>
                        <Array as="points"/>
                    </mxGeometry>
                </mxCell>
                <mxCell id="Q1mEJa5dFUFrGRtE1GUe-295" value="１：「サレンダー」ボタンを押す()" style="text;html=1;align=center;verticalAlign=middle;resizable=0;points=[];autosize=1;strokeColor=none;fillColor=none;" parent="1" vertex="1">
                    <mxGeometry x="961" y="1240" width="210" height="30" as="geometry"/>
                </mxCell>
                <mxCell id="Q1mEJa5dFUFrGRtE1GUe-296" value="" style="group" parent="1" vertex="1" connectable="0">
                    <mxGeometry x="1171" y="1440" width="110" height="80" as="geometry"/>
                </mxCell>
                <mxCell id="Q1mEJa5dFUFrGRtE1GUe-297" value="：内容確認画面" style="ellipse;whiteSpace=wrap;html=1;aspect=fixed;" parent="Q1mEJa5dFUFrGRtE1GUe-296" vertex="1">
                    <mxGeometry x="30" width="80" height="80" as="geometry"/>
                </mxCell>
                <mxCell id="Q1mEJa5dFUFrGRtE1GUe-298" value="" style="endArrow=none;html=1;entryX=0;entryY=0.5;entryDx=0;entryDy=0;" parent="Q1mEJa5dFUFrGRtE1GUe-296" target="Q1mEJa5dFUFrGRtE1GUe-297" edge="1">
                    <mxGeometry width="50" height="50" relative="1" as="geometry">
                        <mxPoint y="40" as="sourcePoint"/>
                        <mxPoint x="30" y="40" as="targetPoint"/>
                    </mxGeometry>
                </mxCell>
                <mxCell id="Q1mEJa5dFUFrGRtE1GUe-299" value="" style="endArrow=none;html=1;" parent="Q1mEJa5dFUFrGRtE1GUe-296" edge="1">
                    <mxGeometry width="50" height="50" relative="1" as="geometry">
                        <mxPoint y="70" as="sourcePoint"/>
                        <mxPoint y="10" as="targetPoint"/>
                    </mxGeometry>
                </mxCell>
                <mxCell id="Q1mEJa5dFUFrGRtE1GUe-300" value="" style="endArrow=none;html=1;exitX=1;exitY=0;exitDx=0;exitDy=0;entryX=0;entryY=1;entryDx=0;entryDy=0;" parent="1" source="Q1mEJa5dFUFrGRtE1GUe-297" target="Q1mEJa5dFUFrGRtE1GUe-291" edge="1">
                    <mxGeometry width="50" height="50" relative="1" as="geometry">
                        <mxPoint x="1180" y="1430" as="sourcePoint"/>
                        <mxPoint x="1190" y="1370" as="targetPoint"/>
                    </mxGeometry>
                </mxCell>
                <mxCell id="Q1mEJa5dFUFrGRtE1GUe-301" value="" style="endArrow=none;html=1;entryX=0.5;entryY=0;entryDx=0;entryDy=0;exitX=0.5;exitY=1;exitDx=0;exitDy=0;" parent="1" source="Q1mEJa5dFUFrGRtE1GUe-291" target="Q1mEJa5dFUFrGRtE1GUe-224" edge="1">
                    <mxGeometry width="50" height="50" relative="1" as="geometry">
                        <mxPoint x="1480" y="1550" as="sourcePoint"/>
                        <mxPoint x="1370" y="1250" as="targetPoint"/>
                    </mxGeometry>
                </mxCell>
                <mxCell id="Q1mEJa5dFUFrGRtE1GUe-302" value="" style="endArrow=none;html=1;" parent="1" edge="1">
                    <mxGeometry width="50" height="50" relative="1" as="geometry">
                        <mxPoint x="960" y="1340" as="sourcePoint"/>
                        <mxPoint x="1160" y="1480" as="targetPoint"/>
                        <Array as="points">
                            <mxPoint x="960" y="1480"/>
                        </Array>
                    </mxGeometry>
                </mxCell>
                <mxCell id="Q1mEJa5dFUFrGRtE1GUe-303" value="" style="endArrow=classic;html=1;" parent="1" edge="1">
                    <mxGeometry width="50" height="50" relative="1" as="geometry">
                        <mxPoint x="1022.5" y="1470" as="sourcePoint"/>
                        <mxPoint x="1102.5" y="1470" as="targetPoint"/>
                    </mxGeometry>
                </mxCell>
                <mxCell id="Q1mEJa5dFUFrGRtE1GUe-304" value="４：確定する()" style="text;html=1;align=center;verticalAlign=middle;resizable=0;points=[];autosize=1;strokeColor=none;fillColor=none;" parent="1" vertex="1">
                    <mxGeometry x="1012.5" y="1440" width="100" height="30" as="geometry"/>
                </mxCell>
                <mxCell id="Q1mEJa5dFUFrGRtE1GUe-305" value="３：表示する" style="text;html=1;align=center;verticalAlign=middle;resizable=0;points=[];autosize=1;fillColor=none;" parent="1" vertex="1">
                    <mxGeometry x="1252" y="1360" width="100" height="30" as="geometry"/>
                </mxCell>
                <mxCell id="Q1mEJa5dFUFrGRtE1GUe-306" value="" style="edgeStyle=none;orthogonalLoop=1;jettySize=auto;html=1;" parent="1" edge="1">
                    <mxGeometry width="100" relative="1" as="geometry">
                        <mxPoint x="1370" y="1365" as="sourcePoint"/>
                        <mxPoint x="1320" y="1405" as="targetPoint"/>
                        <Array as="points"/>
                    </mxGeometry>
                </mxCell>
                <mxCell id="Q1mEJa5dFUFrGRtE1GUe-307" value="５：掛け金を半分にする&lt;br&gt;(掛け金)" style="text;html=1;align=center;verticalAlign=middle;resizable=0;points=[];autosize=1;strokeColor=none;fillColor=none;" parent="1" vertex="1">
                    <mxGeometry x="1487" y="1355" width="160" height="40" as="geometry"/>
                </mxCell>
                <mxCell id="Q1mEJa5dFUFrGRtE1GUe-309" value="" style="edgeStyle=none;orthogonalLoop=1;jettySize=auto;html=1;" parent="1" edge="1">
                    <mxGeometry width="100" relative="1" as="geometry">
                        <mxPoint x="1492" y="1340" as="sourcePoint"/>
                        <mxPoint x="1492" y="1420" as="targetPoint"/>
                        <Array as="points"/>
                    </mxGeometry>
                </mxCell>
                <mxCell id="Q1mEJa5dFUFrGRtE1GUe-311" value="：登録済ユーザ" style="shape=umlActor;verticalLabelPosition=bottom;verticalAlign=top;html=1;outlineConnect=0;" parent="1" vertex="1">
                    <mxGeometry x="940" y="1610" width="30" height="60" as="geometry"/>
                </mxCell>
                <mxCell id="Q1mEJa5dFUFrGRtE1GUe-312" value="" style="group" parent="1" vertex="1" connectable="0">
                    <mxGeometry x="1170" y="1800" width="110" height="80" as="geometry"/>
                </mxCell>
                <mxCell id="Q1mEJa5dFUFrGRtE1GUe-313" value="：ゲーム継続画面" style="ellipse;whiteSpace=wrap;html=1;aspect=fixed;" parent="Q1mEJa5dFUFrGRtE1GUe-312" vertex="1">
                    <mxGeometry x="30" width="80" height="80" as="geometry"/>
                </mxCell>
                <mxCell id="Q1mEJa5dFUFrGRtE1GUe-314" value="" style="endArrow=none;html=1;entryX=0;entryY=0.5;entryDx=0;entryDy=0;" parent="Q1mEJa5dFUFrGRtE1GUe-312" target="Q1mEJa5dFUFrGRtE1GUe-313" edge="1">
                    <mxGeometry width="50" height="50" relative="1" as="geometry">
                        <mxPoint y="40" as="sourcePoint"/>
                        <mxPoint x="30" y="40" as="targetPoint"/>
                    </mxGeometry>
                </mxCell>
                <mxCell id="Q1mEJa5dFUFrGRtE1GUe-315" value="" style="endArrow=none;html=1;" parent="Q1mEJa5dFUFrGRtE1GUe-312" edge="1">
                    <mxGeometry width="50" height="50" relative="1" as="geometry">
                        <mxPoint y="70" as="sourcePoint"/>
                        <mxPoint y="10" as="targetPoint"/>
                    </mxGeometry>
                </mxCell>
                <mxCell id="Q1mEJa5dFUFrGRtE1GUe-316" value="" style="endArrow=none;html=1;" parent="1" edge="1">
                    <mxGeometry width="50" height="50" relative="1" as="geometry">
                        <mxPoint x="1000" y="1640" as="sourcePoint"/>
                        <mxPoint x="1160" y="1640" as="targetPoint"/>
                    </mxGeometry>
                </mxCell>
                <mxCell id="Q1mEJa5dFUFrGRtE1GUe-317" value="" style="group" parent="1" vertex="1" connectable="0">
                    <mxGeometry x="1440" y="1590" width="80" height="90" as="geometry"/>
                </mxCell>
                <mxCell id="Q1mEJa5dFUFrGRtE1GUe-318" value="：ゲームコントロール" style="ellipse;whiteSpace=wrap;html=1;aspect=fixed;" parent="Q1mEJa5dFUFrGRtE1GUe-317" vertex="1">
                    <mxGeometry y="10" width="80" height="80" as="geometry"/>
                </mxCell>
                <mxCell id="Q1mEJa5dFUFrGRtE1GUe-319" value="" style="triangle;whiteSpace=wrap;html=1;rotation=-180;" parent="Q1mEJa5dFUFrGRtE1GUe-317" vertex="1">
                    <mxGeometry x="30" width="20" height="20" as="geometry"/>
                </mxCell>
                <mxCell id="Q1mEJa5dFUFrGRtE1GUe-320" value="" style="endArrow=none;html=1;" parent="1" edge="1">
                    <mxGeometry width="50" height="50" relative="1" as="geometry">
                        <mxPoint x="1160" y="1840" as="sourcePoint"/>
                        <mxPoint x="960" y="1700" as="targetPoint"/>
                        <Array as="points">
                            <mxPoint x="960" y="1840"/>
                        </Array>
                    </mxGeometry>
                </mxCell>
                <mxCell id="Q1mEJa5dFUFrGRtE1GUe-321" value="" style="endArrow=none;html=1;exitX=1;exitY=0;exitDx=0;exitDy=0;entryX=0;entryY=1;entryDx=0;entryDy=0;" parent="1" source="Q1mEJa5dFUFrGRtE1GUe-313" target="Q1mEJa5dFUFrGRtE1GUe-318" edge="1">
                    <mxGeometry width="50" height="50" relative="1" as="geometry">
                        <mxPoint x="1220" y="1760" as="sourcePoint"/>
                        <mxPoint x="1210" y="1720" as="targetPoint"/>
                    </mxGeometry>
                </mxCell>
                <mxCell id="Q1mEJa5dFUFrGRtE1GUe-325" value="" style="endArrow=classic;html=1;" parent="1" edge="1">
                    <mxGeometry width="50" height="50" relative="1" as="geometry">
                        <mxPoint x="1040" y="1830" as="sourcePoint"/>
                        <mxPoint x="1120" y="1830" as="targetPoint"/>
                    </mxGeometry>
                </mxCell>
                <mxCell id="Q1mEJa5dFUFrGRtE1GUe-326" value="" style="endArrow=classic;html=1;" parent="1" edge="1">
                    <mxGeometry width="50" height="50" relative="1" as="geometry">
                        <mxPoint x="1380" y="1712.5" as="sourcePoint"/>
                        <mxPoint x="1300" y="1777.5" as="targetPoint"/>
                    </mxGeometry>
                </mxCell>
                <mxCell id="Q1mEJa5dFUFrGRtE1GUe-327" value="３[持ち金が0円じゃない場合]：&lt;br&gt;表示する" style="text;html=1;align=center;verticalAlign=middle;resizable=0;points=[];autosize=1;strokeColor=none;fillColor=none;" parent="1" vertex="1">
                    <mxGeometry x="1162" y="1725" width="190" height="40" as="geometry"/>
                </mxCell>
                <mxCell id="Q1mEJa5dFUFrGRtE1GUe-328" value="４：ゲーム継続を押す()" style="text;html=1;align=center;verticalAlign=middle;resizable=0;points=[];autosize=1;strokeColor=none;fillColor=none;" parent="1" vertex="1">
                    <mxGeometry x="1007.5" y="1800" width="150" height="30" as="geometry"/>
                </mxCell>
                <mxCell id="Q1mEJa5dFUFrGRtE1GUe-329" value="" style="group" parent="1" vertex="1" connectable="0">
                    <mxGeometry x="1170" y="2120" width="110" height="80" as="geometry"/>
                </mxCell>
                <mxCell id="Q1mEJa5dFUFrGRtE1GUe-330" value="：ゲーム継続画面" style="ellipse;whiteSpace=wrap;html=1;aspect=fixed;" parent="Q1mEJa5dFUFrGRtE1GUe-329" vertex="1">
                    <mxGeometry x="30" width="80" height="80" as="geometry"/>
                </mxCell>
                <mxCell id="Q1mEJa5dFUFrGRtE1GUe-331" value="" style="endArrow=none;html=1;entryX=0;entryY=0.5;entryDx=0;entryDy=0;" parent="Q1mEJa5dFUFrGRtE1GUe-329" target="Q1mEJa5dFUFrGRtE1GUe-330" edge="1">
                    <mxGeometry width="50" height="50" relative="1" as="geometry">
                        <mxPoint y="40" as="sourcePoint"/>
                        <mxPoint x="30" y="40" as="targetPoint"/>
                    </mxGeometry>
                </mxCell>
                <mxCell id="Q1mEJa5dFUFrGRtE1GUe-332" value="" style="endArrow=none;html=1;" parent="Q1mEJa5dFUFrGRtE1GUe-329" edge="1">
                    <mxGeometry width="50" height="50" relative="1" as="geometry">
                        <mxPoint y="70" as="sourcePoint"/>
                        <mxPoint y="10" as="targetPoint"/>
                    </mxGeometry>
                </mxCell>
                <mxCell id="Q1mEJa5dFUFrGRtE1GUe-333" value="：登録済ユーザ" style="shape=umlActor;verticalLabelPosition=bottom;verticalAlign=top;html=1;outlineConnect=0;" parent="1" vertex="1">
                    <mxGeometry x="910" y="1970" width="30" height="60" as="geometry"/>
                </mxCell>
                <mxCell id="Q1mEJa5dFUFrGRtE1GUe-334" value="" style="group" parent="1" vertex="1" connectable="0">
                    <mxGeometry x="1440" y="1950" width="80" height="90" as="geometry"/>
                </mxCell>
                <mxCell id="Q1mEJa5dFUFrGRtE1GUe-335" value="：ゲームコントロール" style="ellipse;whiteSpace=wrap;html=1;aspect=fixed;" parent="Q1mEJa5dFUFrGRtE1GUe-334" vertex="1">
                    <mxGeometry y="10" width="80" height="80" as="geometry"/>
                </mxCell>
                <mxCell id="Q1mEJa5dFUFrGRtE1GUe-336" value="" style="triangle;whiteSpace=wrap;html=1;rotation=-180;" parent="Q1mEJa5dFUFrGRtE1GUe-334" vertex="1">
                    <mxGeometry x="30" width="20" height="20" as="geometry"/>
                </mxCell>
                <mxCell id="Q1mEJa5dFUFrGRtE1GUe-337" value="" style="endArrow=none;html=1;" parent="1" edge="1">
                    <mxGeometry width="50" height="50" relative="1" as="geometry">
                        <mxPoint x="957.5" y="2000" as="sourcePoint"/>
                        <mxPoint x="1160" y="2000" as="targetPoint"/>
                    </mxGeometry>
                </mxCell>
                <mxCell id="Q1mEJa5dFUFrGRtE1GUe-338" value="" style="endArrow=none;html=1;" parent="1" edge="1">
                    <mxGeometry width="50" height="50" relative="1" as="geometry">
                        <mxPoint x="1160" y="2160" as="sourcePoint"/>
                        <mxPoint x="930" y="2060" as="targetPoint"/>
                        <Array as="points">
                            <mxPoint x="930" y="2160"/>
                        </Array>
                    </mxGeometry>
                </mxCell>
                <mxCell id="Q1mEJa5dFUFrGRtE1GUe-339" value="" style="endArrow=none;html=1;exitX=1;exitY=0;exitDx=0;exitDy=0;entryX=0;entryY=1;entryDx=0;entryDy=0;" parent="1" source="Q1mEJa5dFUFrGRtE1GUe-330" target="Q1mEJa5dFUFrGRtE1GUe-335" edge="1">
                    <mxGeometry width="50" height="50" relative="1" as="geometry">
                        <mxPoint x="1220" y="2090" as="sourcePoint"/>
                        <mxPoint x="1200" y="2070" as="targetPoint"/>
                    </mxGeometry>
                </mxCell>
                <mxCell id="Q1mEJa5dFUFrGRtE1GUe-340" value="" style="endArrow=classic;html=1;" parent="1" edge="1">
                    <mxGeometry width="50" height="50" relative="1" as="geometry">
                        <mxPoint x="1390" y="2050" as="sourcePoint"/>
                        <mxPoint x="1301" y="2100" as="targetPoint"/>
                    </mxGeometry>
                </mxCell>
                <mxCell id="Q1mEJa5dFUFrGRtE1GUe-341" value="" style="endArrow=classic;html=1;" parent="1" edge="1">
                    <mxGeometry width="50" height="50" relative="1" as="geometry">
                        <mxPoint x="1022.5" y="2150" as="sourcePoint"/>
                        <mxPoint x="1102.5" y="2150" as="targetPoint"/>
                    </mxGeometry>
                </mxCell>
                <mxCell id="Q1mEJa5dFUFrGRtE1GUe-342" value="" style="endArrow=classic;html=1;" parent="1" edge="1">
                    <mxGeometry width="50" height="50" relative="1" as="geometry">
                        <mxPoint x="1030" y="1990" as="sourcePoint"/>
                        <mxPoint x="1110" y="1990" as="targetPoint"/>
                    </mxGeometry>
                </mxCell>
                <mxCell id="Q1mEJa5dFUFrGRtE1GUe-343" value="１：ゲーム終了画面&lt;br&gt;の表示を指示する()" style="text;html=1;align=center;verticalAlign=middle;resizable=0;points=[];autosize=1;strokeColor=none;fillColor=none;" parent="1" vertex="1">
                    <mxGeometry x="1007.5" y="1950" width="130" height="40" as="geometry"/>
                </mxCell>
                <mxCell id="Q1mEJa5dFUFrGRtE1GUe-344" value="３：表示する" style="text;html=1;align=center;verticalAlign=middle;resizable=0;points=[];autosize=1;strokeColor=none;fillColor=none;" parent="1" vertex="1">
                    <mxGeometry x="1241" y="2060" width="100" height="30" as="geometry"/>
                </mxCell>
                <mxCell id="Q1mEJa5dFUFrGRtE1GUe-346" value="４：ゲーム終了を確定する" style="text;html=1;align=center;verticalAlign=middle;resizable=0;points=[];autosize=1;strokeColor=none;fillColor=none;" parent="1" vertex="1">
                    <mxGeometry x="980" y="2120" width="170" height="30" as="geometry"/>
                </mxCell>
                <mxCell id="109" value="" style="group" parent="1" vertex="1" connectable="0">
                    <mxGeometry x="290" y="1730" width="110" height="80" as="geometry"/>
                </mxCell>
                <mxCell id="110" value="：メイン画面" style="ellipse;whiteSpace=wrap;html=1;aspect=fixed;" parent="109" vertex="1">
                    <mxGeometry x="30" width="80" height="80" as="geometry"/>
                </mxCell>
                <mxCell id="111" value="" style="endArrow=none;html=1;entryX=0;entryY=0.5;entryDx=0;entryDy=0;" parent="109" target="110" edge="1">
                    <mxGeometry width="50" height="50" relative="1" as="geometry">
                        <mxPoint y="40" as="sourcePoint"/>
                        <mxPoint x="30" y="40" as="targetPoint"/>
                    </mxGeometry>
                </mxCell>
                <mxCell id="112" value="" style="endArrow=none;html=1;" parent="109" edge="1">
                    <mxGeometry width="50" height="50" relative="1" as="geometry">
                        <mxPoint y="70" as="sourcePoint"/>
                        <mxPoint y="10" as="targetPoint"/>
                    </mxGeometry>
                </mxCell>
                <mxCell id="113" value="" style="group" parent="1" vertex="1" connectable="0">
                    <mxGeometry x="930" y="225" width="110" height="80" as="geometry"/>
                </mxCell>
                <mxCell id="114" value="：ゲーム画面" style="ellipse;whiteSpace=wrap;html=1;aspect=fixed;" parent="113" vertex="1">
                    <mxGeometry x="30" width="80" height="80" as="geometry"/>
                </mxCell>
                <mxCell id="115" value="" style="endArrow=none;html=1;entryX=0;entryY=0.5;entryDx=0;entryDy=0;" parent="113" target="114" edge="1">
                    <mxGeometry width="50" height="50" relative="1" as="geometry">
                        <mxPoint y="40" as="sourcePoint"/>
                        <mxPoint x="30" y="40" as="targetPoint"/>
                    </mxGeometry>
                </mxCell>
                <mxCell id="116" value="" style="endArrow=none;html=1;" parent="113" edge="1">
                    <mxGeometry width="50" height="50" relative="1" as="geometry">
                        <mxPoint y="70" as="sourcePoint"/>
                        <mxPoint y="10" as="targetPoint"/>
                    </mxGeometry>
                </mxCell>
                <mxCell id="124" value="" style="endArrow=none;html=1;entryX=0;entryY=0.5;entryDx=0;entryDy=0;exitX=1;exitY=0.5;exitDx=0;exitDy=0;" parent="1" source="110" target="Q1mEJa5dFUFrGRtE1GUe-197" edge="1">
                    <mxGeometry width="50" height="50" relative="1" as="geometry">
                        <mxPoint x="400" y="1790" as="sourcePoint"/>
                        <mxPoint x="450" y="1740" as="targetPoint"/>
                    </mxGeometry>
                </mxCell>
                <mxCell id="127" value="２：ゲーム開始を指示する" style="text;html=1;align=center;verticalAlign=middle;resizable=0;points=[];autosize=1;strokeColor=none;fillColor=none;" parent="1" vertex="1">
                    <mxGeometry x="405" y="1730" width="170" height="30" as="geometry"/>
                </mxCell>
                <mxCell id="129" value="" style="endArrow=classic;html=1;" parent="1" edge="1">
                    <mxGeometry width="50" height="50" relative="1" as="geometry">
                        <mxPoint x="450" y="1760" as="sourcePoint"/>
                        <mxPoint x="530" y="1760" as="targetPoint"/>
                    </mxGeometry>
                </mxCell>
                <mxCell id="130" value="" style="group" parent="1" vertex="1" connectable="0">
                    <mxGeometry x="290" y="1900" width="110" height="80" as="geometry"/>
                </mxCell>
                <mxCell id="131" value="：メイン画面" style="ellipse;whiteSpace=wrap;html=1;aspect=fixed;" parent="130" vertex="1">
                    <mxGeometry x="30" width="80" height="80" as="geometry"/>
                </mxCell>
                <mxCell id="132" value="" style="endArrow=none;html=1;entryX=0;entryY=0.5;entryDx=0;entryDy=0;" parent="130" target="131" edge="1">
                    <mxGeometry width="50" height="50" relative="1" as="geometry">
                        <mxPoint y="40" as="sourcePoint"/>
                        <mxPoint x="30" y="40" as="targetPoint"/>
                    </mxGeometry>
                </mxCell>
                <mxCell id="133" value="" style="endArrow=none;html=1;" parent="130" edge="1">
                    <mxGeometry width="50" height="50" relative="1" as="geometry">
                        <mxPoint y="70" as="sourcePoint"/>
                        <mxPoint y="10" as="targetPoint"/>
                    </mxGeometry>
                </mxCell>
                <mxCell id="134" value="" style="endArrow=none;html=1;entryX=0;entryY=1;entryDx=0;entryDy=0;exitX=1;exitY=0.5;exitDx=0;exitDy=0;" parent="1" source="131" target="Q1mEJa5dFUFrGRtE1GUe-197" edge="1">
                    <mxGeometry width="50" height="50" relative="1" as="geometry">
                        <mxPoint x="470" y="1930" as="sourcePoint"/>
                        <mxPoint x="520" y="1880" as="targetPoint"/>
                    </mxGeometry>
                </mxCell>
                <mxCell id="135" value="３：表示する" style="text;html=1;align=center;verticalAlign=middle;resizable=0;points=[];autosize=1;strokeColor=none;fillColor=none;" parent="1" vertex="1">
                    <mxGeometry x="370" y="1855" width="100" height="30" as="geometry"/>
                </mxCell>
                <mxCell id="136" value="" style="endArrow=classic;html=1;" parent="1" edge="1">
                    <mxGeometry width="50" height="50" relative="1" as="geometry">
                        <mxPoint x="495" y="1855" as="sourcePoint"/>
                        <mxPoint x="435" y="1900" as="targetPoint"/>
                    </mxGeometry>
                </mxCell>
                <mxCell id="137" value="" style="group" vertex="1" connectable="0" parent="1">
                    <mxGeometry x="968.5" y="719" width="110" height="80" as="geometry"/>
                </mxCell>
                <mxCell id="138" value="：ゲーム画面" style="ellipse;whiteSpace=wrap;html=1;aspect=fixed;" vertex="1" parent="137">
                    <mxGeometry x="30" width="80" height="80" as="geometry"/>
                </mxCell>
                <mxCell id="139" value="" style="endArrow=none;html=1;entryX=0;entryY=0.5;entryDx=0;entryDy=0;" edge="1" parent="137" target="138">
                    <mxGeometry width="50" height="50" relative="1" as="geometry">
                        <mxPoint y="40" as="sourcePoint"/>
                        <mxPoint x="30" y="40" as="targetPoint"/>
                    </mxGeometry>
                </mxCell>
                <mxCell id="140" value="" style="endArrow=none;html=1;" edge="1" parent="137">
                    <mxGeometry width="50" height="50" relative="1" as="geometry">
                        <mxPoint y="70" as="sourcePoint"/>
                        <mxPoint y="10" as="targetPoint"/>
                    </mxGeometry>
                </mxCell>
                <mxCell id="141" value="" style="endArrow=none;html=1;exitX=1;exitY=0.5;exitDx=0;exitDy=0;entryX=0;entryY=0.5;entryDx=0;entryDy=0;" edge="1" parent="1" source="138" target="Q1mEJa5dFUFrGRtE1GUe-247">
                    <mxGeometry width="50" height="50" relative="1" as="geometry">
                        <mxPoint x="1032" y="729" as="sourcePoint"/>
                        <mxPoint x="1162" y="759" as="targetPoint"/>
                    </mxGeometry>
                </mxCell>
                <mxCell id="142" value="" style="endArrow=classic;html=1;" edge="1" parent="1">
                    <mxGeometry width="50" height="50" relative="1" as="geometry">
                        <mxPoint x="1090" y="750" as="sourcePoint"/>
                        <mxPoint x="1180" y="750" as="targetPoint"/>
                    </mxGeometry>
                </mxCell>
                <mxCell id="143" value="２：結果出力画面表示&lt;br&gt;を指示する" style="text;html=1;align=center;verticalAlign=middle;resizable=0;points=[];autosize=1;strokeColor=none;fillColor=none;" vertex="1" parent="1">
                    <mxGeometry x="1070" y="709" width="140" height="40" as="geometry"/>
                </mxCell>
                <mxCell id="Q1mEJa5dFUFrGRtE1GUe-212" value="" style="endArrow=classic;html=1;" parent="1" edge="1">
                    <mxGeometry width="50" height="50" relative="1" as="geometry">
                        <mxPoint x="990" y="140" as="sourcePoint"/>
                        <mxPoint x="990" y="200" as="targetPoint"/>
                    </mxGeometry>
                </mxCell>
                <mxCell id="Q1mEJa5dFUFrGRtE1GUe-213" value="１：「ヒット」ボタンを押す()" style="text;html=1;align=center;verticalAlign=middle;resizable=0;points=[];autosize=1;strokeColor=none;fillColor=none;" parent="1" vertex="1">
                    <mxGeometry x="810" y="150" width="190" height="30" as="geometry"/>
                </mxCell>
                <mxCell id="145" value="" style="endArrow=classic;html=1;" edge="1" parent="1">
                    <mxGeometry width="50" height="50" relative="1" as="geometry">
                        <mxPoint x="1091" y="259.52" as="sourcePoint"/>
                        <mxPoint x="1171" y="259.52" as="targetPoint"/>
                    </mxGeometry>
                </mxCell>
                <mxCell id="146" value="２：「ヒット」ボタンを押す()" style="text;html=1;align=center;verticalAlign=middle;resizable=0;points=[];autosize=1;strokeColor=none;fillColor=none;" vertex="1" parent="1">
                    <mxGeometry x="1027" y="230" width="190" height="30" as="geometry"/>
                </mxCell>
                <mxCell id="147" value="" style="endArrow=none;html=1;exitX=0.5;exitY=0;exitDx=0;exitDy=0;" edge="1" parent="1" source="114">
                    <mxGeometry width="50" height="50" relative="1" as="geometry">
                        <mxPoint x="950" y="140" as="sourcePoint"/>
                        <mxPoint x="1000" y="120" as="targetPoint"/>
                    </mxGeometry>
                </mxCell>
                <mxCell id="149" value="" style="group" vertex="1" connectable="0" parent="1">
                    <mxGeometry x="1170" y="1240" width="110" height="80" as="geometry"/>
                </mxCell>
                <mxCell id="150" value="：内容確認画面" style="ellipse;whiteSpace=wrap;html=1;aspect=fixed;" vertex="1" parent="149">
                    <mxGeometry x="30" width="80" height="80" as="geometry"/>
                </mxCell>
                <mxCell id="151" value="" style="endArrow=none;html=1;entryX=0;entryY=0.5;entryDx=0;entryDy=0;" edge="1" parent="149" target="150">
                    <mxGeometry width="50" height="50" relative="1" as="geometry">
                        <mxPoint y="40" as="sourcePoint"/>
                        <mxPoint x="30" y="40" as="targetPoint"/>
                    </mxGeometry>
                </mxCell>
                <mxCell id="152" value="" style="endArrow=none;html=1;" edge="1" parent="149">
                    <mxGeometry width="50" height="50" relative="1" as="geometry">
                        <mxPoint y="70" as="sourcePoint"/>
                        <mxPoint y="10" as="targetPoint"/>
                    </mxGeometry>
                </mxCell>
                <mxCell id="153" value="" style="endArrow=none;html=1;exitX=1;exitY=0.5;exitDx=0;exitDy=0;entryX=0;entryY=0.5;entryDx=0;entryDy=0;" edge="1" parent="1" source="150" target="Q1mEJa5dFUFrGRtE1GUe-291">
                    <mxGeometry width="50" height="50" relative="1" as="geometry">
                        <mxPoint x="1300" y="1290" as="sourcePoint"/>
                        <mxPoint x="1350" y="1240" as="targetPoint"/>
                    </mxGeometry>
                </mxCell>
                <mxCell id="154" value="２：「サレンダー」ボタン&lt;br&gt;を押す" style="text;html=1;align=center;verticalAlign=middle;resizable=0;points=[];autosize=1;strokeColor=none;fillColor=none;" vertex="1" parent="1">
                    <mxGeometry x="1267" y="1230" width="170" height="40" as="geometry"/>
                </mxCell>
                <mxCell id="155" value="" style="endArrow=classic;html=1;" edge="1" parent="1">
                    <mxGeometry width="50" height="50" relative="1" as="geometry">
                        <mxPoint x="1320" y="1270" as="sourcePoint"/>
                        <mxPoint x="1400" y="1270" as="targetPoint"/>
                    </mxGeometry>
                </mxCell>
                <mxCell id="156" value="" style="group" vertex="1" connectable="0" parent="1">
                    <mxGeometry x="1170" y="1600" width="110" height="80" as="geometry"/>
                </mxCell>
                <mxCell id="157" value="：内容確認画面" style="ellipse;whiteSpace=wrap;html=1;aspect=fixed;" vertex="1" parent="156">
                    <mxGeometry x="30" width="80" height="80" as="geometry"/>
                </mxCell>
                <mxCell id="158" value="" style="endArrow=none;html=1;entryX=0;entryY=0.5;entryDx=0;entryDy=0;" edge="1" parent="156" target="157">
                    <mxGeometry width="50" height="50" relative="1" as="geometry">
                        <mxPoint y="40" as="sourcePoint"/>
                        <mxPoint x="30" y="40" as="targetPoint"/>
                    </mxGeometry>
                </mxCell>
                <mxCell id="159" value="" style="endArrow=none;html=1;" edge="1" parent="156">
                    <mxGeometry width="50" height="50" relative="1" as="geometry">
                        <mxPoint y="70" as="sourcePoint"/>
                        <mxPoint y="10" as="targetPoint"/>
                    </mxGeometry>
                </mxCell>
                <mxCell id="Q1mEJa5dFUFrGRtE1GUe-324" value="１：ゲーム継続画面&lt;br&gt;の表示を指示する()" style="text;html=1;align=center;verticalAlign=middle;resizable=0;points=[];autosize=1;strokeColor=none;fillColor=none;" parent="1" vertex="1">
                    <mxGeometry x="1012.5" y="1590" width="130" height="40" as="geometry"/>
                </mxCell>
                <mxCell id="161" value="" style="endArrow=classic;html=1;" edge="1" parent="1">
                    <mxGeometry width="50" height="50" relative="1" as="geometry">
                        <mxPoint x="1040" y="1630" as="sourcePoint"/>
                        <mxPoint x="1120" y="1630" as="targetPoint"/>
                    </mxGeometry>
                </mxCell>
                <mxCell id="162" value="" style="endArrow=none;html=1;exitX=1;exitY=0.5;exitDx=0;exitDy=0;entryX=0;entryY=0.5;entryDx=0;entryDy=0;" edge="1" parent="1" source="157" target="Q1mEJa5dFUFrGRtE1GUe-318">
                    <mxGeometry width="50" height="50" relative="1" as="geometry">
                        <mxPoint x="1320" y="1590" as="sourcePoint"/>
                        <mxPoint x="1370" y="1540" as="targetPoint"/>
                    </mxGeometry>
                </mxCell>
                <mxCell id="163" value="" style="endArrow=classic;html=1;" edge="1" parent="1">
                    <mxGeometry width="50" height="50" relative="1" as="geometry">
                        <mxPoint x="1320" y="1630" as="sourcePoint"/>
                        <mxPoint x="1400" y="1630" as="targetPoint"/>
                    </mxGeometry>
                </mxCell>
                <mxCell id="164" value="２：ゲーム継続画面&lt;br&gt;の表示を指示する()" style="text;html=1;align=center;verticalAlign=middle;resizable=0;points=[];autosize=1;strokeColor=none;fillColor=none;" vertex="1" parent="1">
                    <mxGeometry x="1290" y="1590" width="130" height="40" as="geometry"/>
                </mxCell>
                <mxCell id="165" value="" style="group" vertex="1" connectable="0" parent="1">
                    <mxGeometry x="1170" y="1960" width="110" height="80" as="geometry"/>
                </mxCell>
                <mxCell id="166" value="：ゲーム継続画面" style="ellipse;whiteSpace=wrap;html=1;aspect=fixed;" vertex="1" parent="165">
                    <mxGeometry x="30" width="80" height="80" as="geometry"/>
                </mxCell>
                <mxCell id="167" value="" style="endArrow=none;html=1;entryX=0;entryY=0.5;entryDx=0;entryDy=0;" edge="1" parent="165" target="166">
                    <mxGeometry width="50" height="50" relative="1" as="geometry">
                        <mxPoint y="40" as="sourcePoint"/>
                        <mxPoint x="30" y="40" as="targetPoint"/>
                    </mxGeometry>
                </mxCell>
                <mxCell id="168" value="" style="endArrow=none;html=1;" edge="1" parent="165">
                    <mxGeometry width="50" height="50" relative="1" as="geometry">
                        <mxPoint y="70" as="sourcePoint"/>
                        <mxPoint y="10" as="targetPoint"/>
                    </mxGeometry>
                </mxCell>
                <mxCell id="169" value="" style="endArrow=none;html=1;exitX=1;exitY=0.5;exitDx=0;exitDy=0;entryX=0;entryY=0.5;entryDx=0;entryDy=0;" edge="1" parent="1" source="166" target="Q1mEJa5dFUFrGRtE1GUe-335">
                    <mxGeometry width="50" height="50" relative="1" as="geometry">
                        <mxPoint x="1330" y="2010" as="sourcePoint"/>
                        <mxPoint x="1380" y="1960" as="targetPoint"/>
                    </mxGeometry>
                </mxCell>
                <mxCell id="170" value="２：ゲーム終了画面&lt;br&gt;の表示を指示する()" style="text;html=1;align=center;verticalAlign=middle;resizable=0;points=[];autosize=1;strokeColor=none;fillColor=none;" vertex="1" parent="1">
                    <mxGeometry x="1295" y="1950" width="130" height="40" as="geometry"/>
                </mxCell>
                <mxCell id="171" value="" style="endArrow=classic;html=1;" edge="1" parent="1">
                    <mxGeometry width="50" height="50" relative="1" as="geometry">
                        <mxPoint x="1320" y="1990" as="sourcePoint"/>
                        <mxPoint x="1400" y="1990" as="targetPoint"/>
                    </mxGeometry>
                </mxCell>
            </root>
        </mxGraphModel>
    </diagram>
</mxfile>